<?xml version="1.0" encoding="UTF-8"?>
<!DOCTYPE svg PUBLIC "-//W3C//DTD SVG 1.1//EN" "http://www.w3.org/Graphics/SVG/1.1/DTD/svg11.dtd">
<!-- Creator: CorelDRAW 2023 -->
<svg xmlns="http://www.w3.org/2000/svg" xml:space="preserve" width="263.127mm" height="263.124mm" version="1.1" style="shape-rendering:geometricPrecision; text-rendering:geometricPrecision; image-rendering:optimizeQuality; fill-rule:evenodd; clip-rule:evenodd"
viewBox="0 0 18386.74 18386.55"
 xmlns:xlink="http://www.w3.org/1999/xlink"
 xmlns:xodm="http://www.corel.com/coreldraw/odm/2003">
 <defs>
  <style type="text/css">
   <![CDATA[
    .fil0 {fill:white}
    .fil1 {fill:#95683B;fill-rule:nonzero}
    .fil2 {fill:#567C39;fill-rule:nonzero}
    .fil3 {fill:#354066;fill-rule:nonzero}
   ]]>
  </style>
 </defs>
 <g id="Layer_x0020_1">
  <metadata id="CorelCorpID_0Corel-Layer"/>
  <circle class="fil0" cx="9193.37" cy="9193.27" r="9059.62"/>
  <path class="fil1" d="M9145.44 4610.51l97.09 0 39.54 1993.31c81.81,-231.74 370.07,-529.27 669.26,-790.46 51.33,-93.64 107.86,-218.4 114.51,-328.83 12.66,-208.98 109.56,-473.62 109.56,-473.62l43.81 18.49c0,0 -82.48,190.49 -85.93,345.57 -1.7,107.86 -26.2,228.4 -64.87,337.91 343.87,-287.39 666.73,-509.04 666.73,-509.04l35.42 50.65c0,0 -762.76,546.21 -1163.11,1081.3 -400.4,535.24 -300.06,1274.37 -300.06,1274.37 132.31,-350.57 541.94,-578.04 793.86,-698.71 252.85,-120.53 359.15,-254.54 359.15,-254.54l31.98 32.02c-135.71,187.92 -542.76,386.13 -817.49,597.73 -274.05,210.53 -319.61,569.64 -319.61,569.64 -129.74,894.39 49.84,1929.31 49.84,1929.31 232.61,-431.54 938.89,-771.15 1287.9,-999.69 348.87,-228.34 508.21,-792.16 508.21,-792.16l42.94 0c-22.76,128.05 -61.43,251.1 -114.66,368.37 250.42,-140.9 681.92,-110.43 1079.75,-103.73 250.27,5.82 383.41,-91.95 383.41,-91.95l21.93 16.11c-157.31,134.55 -367.7,125.82 -639.86,117.09 -71.9,-2.24 -148.23,-4.61 -229.02,-4.13 -310.2,1.56 -565.57,133.19 -693.76,213.98 -111.26,189.68 -264.63,358.28 -459.26,492.3 200.59,8.39 388.56,37.85 665.86,115.38 202.34,55.61 1140.36,-13.34 1140.36,-13.34l0 42.94c0,0 -933.94,109.56 -1227.98,26.01 -113.83,-31.98 -258.81,-52.21 -393.71,-64.87 -181.95,-17.62 -364.11,12.66 -534.41,80.98l-2.57 0.87c-567.95,225.09 -800.56,1038.31 -800.56,1038.31 -21.05,805.89 49.64,1665.5 141.54,2408.07 -82.68,-127.18 -226.79,-211.6 -389.43,-211.6 -158.48,0 -299.18,80.11 -383.42,201.51 90.88,-740 160.9,-1596.35 139.84,-2397.98 0,0 -232.61,-813.22 -801.58,-1038.31l-1.75 -0.87c-170.12,-68.32 -352.27,-98.6 -534.22,-80.98 -134.89,12.66 -280.69,32.9 -394.52,64.87 -294.09,83.55 -1227.16,-26.01 -1227.16,-26.01l0 -42.94c0,0 938.02,68.95 1140.35,13.34 276.48,-77.54 464.4,-106.99 665.86,-115.38 -194.76,-134.02 -348.14,-302.63 -460.08,-492.3 -128.25,-80.79 -382.79,-212.42 -693.81,-213.98 -80.79,-0.48 -157.11,1.89 -229.17,4.13 -272.01,8.73 -482.35,17.46 -638.98,-117.09l21.89 -16.11c0,0 133.19,97.77 383.61,91.95 396.95,-6.7 829.33,-37.17 1078.88,103.73 -53.23,-117.28 -91.03,-240.32 -114.66,-368.37l42.95 0c0,0 159.39,563.82 509.09,792.16 348.14,228.54 1055.29,568.14 1287.9,999.69 0,0 178.71,-1034.91 49.63,-1929.31 0,0 -45.36,-359.11 -320.24,-569.64 -274.78,-211.6 -681.83,-409.81 -817.54,-597.73l32.85 -32.02c0,0 106.12,134.01 358.28,254.54 251.97,120.67 662.41,348.14 794.73,698.71 0,0 100.34,-739.13 -300.06,-1274.37 -401.22,-535.1 -1163.98,-1081.3 -1163.98,-1081.3l36.29 -50.65c0,0 321.98,221.65 665.86,509.04 -38.87,-109.51 -63.32,-230.04 -64.87,-337.91 -3.4,-155.07 -85.25,-345.57 -85.25,-345.57l42.99 -18.49c0,0 97.04,264.64 109.56,473.62 6.84,110.43 63.32,235.19 115.53,328.83 298.36,261.2 587.45,558.73 669.25,790.46l39.55 -1993.31z"/>
  <path class="fil2" d="M8432.85 7830.11c92.63,95.68 70.21,197.73 38.19,263.13 -12.18,24.99 -45.51,30.28 -70.02,11.98l-294.57 -242.41 259.97 279c19.89,23.48 16.64,57.01 -7.52,70.7 -63.32,36.15 -163.81,64.87 -264.98,-21.89 -166.53,-142.94 -73.94,-409.13 -73.94,-409.13 0,0 260.03,-108.69 412.87,48.62z"/>
  <path class="fil2" d="M8437.65 4579.22c-5.97,133 -95.54,186.76 -165.17,208.3 -26.39,8.4 -53.08,-12.32 -56.67,-42.79l-25.86 -380.51 -24.46 380.7c-3.44,30.47 -30.13,51.19 -56.67,43.14 -69.82,-21.4 -159.54,-74.83 -165.85,-208.01 -10.43,-219.07 246.63,-334.46 246.63,-334.46 0,0 257.65,114.37 248.05,333.64z"/>
  <path class="fil2" d="M8892.1 5274.19c-55.46,121.16 -158.47,137.41 -231.06,131.59 -27.76,-2.38 -44.88,-31.49 -36.64,-61.09l118.11 -362.55 -164.83 343.92c-14.75,27.03 -47.07,36.25 -68.66,18.83 -56.82,-45.9 -120.14,-128.92 -76.18,-254.73 72.25,-207.29 353.82,-218.06 353.82,-218.06 0,0 196.17,202.34 105.44,402.1z"/>
  <path class="fil2" d="M9647.68 4094.78c-10.96,244.45 -175.45,343.05 -303.16,382.74 -48.62,15.23 -97.72,-22.56 -104.22,-78.7l-47.6 -698.76 -45.03 699.09c-6.31,55.95 -55.12,93.94 -103.89,79.05 -128.19,-39.16 -293.21,-137.07 -304.71,-381.72 -19.17,-402.38 453.09,-614.33 453.09,-614.33 0,0 473.14,210.05 455.52,612.63z"/>
  <path class="fil2" d="M6929.46 6536.91c54.59,95.01 16.25,171.86 -22.42,217.71 -14.75,17.32 -42.31,14.9 -58.23,-4.6l-186.42 -252.46 151.49 274.73c11.16,22.76 1.75,48.96 -20.19,54.92 -57.84,16.11 -143.77,18.83 -206.94,-70.7 -104.22,-147.36 23.09,-341.15 23.09,-341.15 0,0 229.22,-34.55 319.61,121.55z"/>
  <path class="fil2" d="M6600.63 5437.32c118.1,124.41 87.97,255.71 46.05,339.61 -16.11,31.97 -59.05,38.47 -90.54,14.56l-376.97 -316.17 331.94 363.04c25.32,30.47 20.72,73.8 -10.43,91.08 -82.34,45.71 -212.09,81.66 -341.49,-31.49 -212.97,-186.22 -90.21,-528.39 -90.21,-528.39 0,0 336.5,-137.12 531.65,67.78z"/>
  <path class="fil2" d="M6428.57 9532.78c76.18,-78.75 160.75,-62.84 215.34,-38.33 20.72,9.41 26.06,36.78 11.5,57.35l-191.56 248.53 222.71 -220.96c18.64,-16.99 46.39,-15.24 58.38,4.27 31.29,51.19 57.5,132.99 -11.31,218.39 -113.15,140.71 -334.46,71.38 -334.46,71.38 0,0 -96.02,-210.88 29.4,-340.62z"/>
  <path class="fil2" d="M4757.78 8435.56c109.37,5.14 153.37,78.9 171.18,136.1 6.65,21.89 -10.29,43.82 -35.46,46.73l-313.07 20.72 313.07 20.72c25.18,2.72 42.12,24.8 35.46,46.53 -17.66,57.36 -61.62,131.1 -171.18,136.25 -180.4,8.25 -274.93,-203.5 -274.93,-203.5 0,0 94.52,-211.74 274.93,-203.55z"/>
  <path class="fil2" d="M4990.74 6788.35c86.8,66.96 80.64,152.7 62.3,209.71 -6.99,21.74 -33.53,29.94 -55.8,17.95l-268.37 -162.44 244.75 196.36c18.83,16.74 20.23,44.5 2.23,58.52 -47.41,36.83 -125.81,72.06 -218.4,13.54 -152.35,-96.7 -108.54,-324.37 -108.54,-324.37 0,0 198.75,-119.32 341.84,-9.27z"/>
  <path class="fil2" d="M6012.11 6425.99c126.84,179.38 64.53,339.94 -4.27,438.54 -26.01,37.51 -81.81,37.85 -117.23,1.55l-418.69 -469.35 353.29 520.54c26.34,43.14 12.52,97.04 -30.13,113.49 -112.48,42.8 -283.61,64.2 -426.41,-102.91 -235.33,-274.88 -17.08,-685.37 -17.08,-685.37 0,0 451.2,-111.6 660.52,183.51z"/>
  <path class="fil2" d="M5641.36 8766.09c185.88,15.92 256.1,144.5 282.63,243.09 9.9,37.46 -20.38,73.95 -63.37,77.01l-534.37 14.9 531.8 55.8c42.45,6.51 70.01,45.03 57.2,81.67 -33.91,96.56 -113.68,219.26 -300.59,220.63 -307.43,2.23 -454.65,-364.4 -454.65,-364.4 0,0 174.77,-354.35 481.33,-328.68z"/>
  <path class="fil2" d="M7368.14 7482.65c53.09,179.57 -41.24,292.19 -123.73,352.95 -31.49,23.14 -76.52,8.05 -95.2,-30.82l-209.51 -493.99 142.61 517.28c9.41,42.12 -16.45,81.81 -55.46,83.36 -102.52,3.58 -246.49,-26.01 -316.17,-200.1 -114.51,-286.52 174.29,-558.19 174.29,-558.19 0,0 395.07,33.72 483.18,329.51z"/>
  <path class="fil2" d="M8031.82 6123.51c121.16,192.09 48.09,354.35 -28.09,452.42 -29.11,37.31 -86.61,34.59 -121.21,-4.76l-406.85 -507.19 336.5 556.49c24.84,46.05 7.71,100.97 -37.31,115.33 -118.44,38.19 -296.13,51.05 -434.6,-129.21 -228,-296.66 19.55,-708.51 19.55,-708.51 0,0 471.92,-90.69 672.02,225.43z"/>
  <path class="fil2" d="M7537.77 4652.82c173.75,146.15 153.37,323.16 110.43,439.56 -16.45,44.49 -72.06,59.24 -116.94,32.36l-541.55 -360.32 489.34 428.59c37.7,36.29 38.04,93.85 -0.49,121.21 -101.36,72.25 -266.86,138.14 -453.43,8.54 -307.09,-213.6 -196.03,-681.25 -196.03,-681.25 0,0 422.29,-229.36 708.66,11.31z"/>
  <path class="fil2" d="M7390.95 9643.02c119.65,-192.93 297.63,-198.55 419.18,-172.88 46.25,9.75 68.8,62.65 48.82,110.92l-277.83 588.13 352.95 -546.35c30.47,-42.65 87.28,-51.19 119.99,-17.13 86.13,89.86 175.46,243.92 74.29,447.27 -166.71,334.99 -645.48,292.87 -645.48,292.87 0,0 -288.41,-384.43 -91.9,-702.83z"/>
  <path class="fil2" d="M5696.48 7510.21c189.82,177.01 156.48,377.59 100.63,508.21 -21.2,49.63 -85.54,63.32 -135.18,29.94l-597.25 -441.94 533.74 516.9c40.9,43.53 37.99,109.22 -7.53,138.34 -119.65,76.52 -312.43,142.41 -517.82,-16.25 -338.24,-261.38 -184.53,-788.43 -184.53,-788.43 0,0 494.87,-237.75 807.93,53.23z"/>
  <path class="fil2" d="M9953.9 7830.11c-92.58,95.68 -70.36,197.73 -38.33,263.13 12.13,24.99 45.51,30.28 70.16,11.98l294.62 -242.41 -260.22 279c-19.65,23.48 -16.6,57.01 7.57,70.7 63.46,36.15 163.95,64.87 264.98,-21.89 166.53,-142.94 73.94,-409.13 73.94,-409.13 0,0 -259.88,-108.69 -412.72,48.62z"/>
  <path class="fil2" d="M9949.1 4579.22c6.02,133 95.54,186.76 165.02,208.3 26.54,8.4 53.23,-12.32 56.82,-42.79l25.86 -380.51 24.46 380.7c3.44,30.47 30.13,51.19 56.67,43.14 69.68,-21.4 159.54,-74.83 165.9,-208.01 10.43,-219.07 -246.88,-334.46 -246.88,-334.46 0,0 -257.41,114.37 -247.85,333.64z"/>
  <path class="fil2" d="M9494.65 5274.19c55.27,121.16 158.52,137.41 231.11,131.59 27.51,-2.38 44.64,-31.49 36.59,-61.09l-118.25 -362.55 165.02 343.92c14.51,27.03 47.07,36.25 68.61,18.83 56.67,-45.9 120.19,-128.92 76.18,-254.73 -72.25,-207.29 -353.82,-218.06 -353.82,-218.06 0,0 -196.17,202.34 -105.44,402.1z"/>
  <path class="fil2" d="M11457.34 6536.91c-54.64,95.01 -16.3,171.86 22.22,217.71 14.75,17.32 42.46,14.9 58.38,-4.6l186.42 -252.46 -151.49 274.73c-11.16,22.76 -1.89,48.96 20.19,54.92 57.84,16.11 143.62,18.83 206.94,-70.7 104.27,-147.36 -23.09,-341.15 -23.09,-341.15 0,0 -229.22,-34.55 -319.57,121.55z"/>
  <path class="fil2" d="M11786.12 5437.32c-118.25,124.41 -88.12,255.71 -46.05,339.61 16.11,31.97 59.05,38.47 90.59,14.56l376.73 -316.17 -331.89 363.04c-25.18,30.47 -20.52,73.8 10.63,91.08 82.15,45.71 212.09,81.66 341.49,-31.49 212.92,-186.22 90.21,-528.39 90.21,-528.39 0,0 -336.55,-137.12 -531.7,67.78z"/>
  <path class="fil2" d="M11958.18 9532.78c-76.38,-78.75 -160.75,-62.84 -215.34,-38.33 -20.91,9.41 -26.01,36.78 -11.64,57.35l191.7 248.53 -222.71 -220.96c-18.83,-16.99 -46.53,-15.24 -58.38,4.27 -31.29,51.19 -57.5,132.99 11.31,218.39 113.15,140.71 334.32,71.38 334.32,71.38 0,0 96.21,-210.88 -29.26,-340.62z"/>
  <path class="fil2" d="M13628.97 8435.56c-109.37,5.14 -153.52,78.9 -171.14,136.1 -6.69,21.89 10.24,43.82 35.23,46.73l313.11 20.72 -313.11 20.72c-24.99,2.72 -42.07,24.8 -35.23,46.53 17.62,57.36 61.63,131.1 171.14,136.25 180.26,8.25 274.78,-203.5 274.78,-203.5 0,0 -94.52,-211.74 -274.78,-203.55z"/>
  <path class="fil2" d="M13396.01 6788.35c-86.75,66.96 -80.59,152.7 -62.3,209.71 7.04,21.74 33.53,29.94 55.66,17.95l268.37 -162.44 -244.6 196.36c-19.02,16.74 -20.18,44.5 -2.23,58.52 47.26,36.83 125.62,72.06 218.25,13.54 152.5,-96.7 108.54,-324.37 108.54,-324.37 0,0 -198.75,-119.32 -341.69,-9.27z"/>
  <path class="fil2" d="M12374.64 6425.99c-126.84,179.38 -64.53,339.94 4.12,438.54 26.16,37.51 81.81,37.85 117.23,1.55l418.89 -469.35 -353.34 520.54c-26.34,43.14 -12.66,97.04 30.13,113.49 112.48,42.8 283.47,64.2 426.41,-102.91 235.33,-274.88 16.94,-685.37 16.94,-685.37 0,0 -451.21,-111.6 -660.38,183.51z"/>
  <path class="fil2" d="M12745.39 8766.09c-186.08,15.92 -256.24,144.5 -282.59,243.09 -10.1,37.46 20.33,73.95 63.13,77.01l534.61 14.9 -531.85 55.8c-42.45,6.51 -70.01,45.03 -57.15,81.67 33.86,96.56 113.64,219.26 300.39,220.63 307.58,2.23 454.65,-364.4 454.65,-364.4 0,0 -174.63,-354.35 -481.19,-328.68z"/>
  <path class="fil2" d="M11018.61 7482.65c-53.23,179.57 41.24,292.19 123.73,352.95 31.35,23.14 76.38,8.05 95.2,-30.82l209.32 -493.99 -142.41 517.28c-9.56,42.12 16.45,81.81 55.32,83.36 102.52,3.58 246.63,-26.01 316.12,-200.1 114.7,-286.52 -174.05,-558.19 -174.05,-558.19 0,0 -395.06,33.72 -483.22,329.51z"/>
  <path class="fil2" d="M10354.98 6123.51c-121.21,192.09 -48.28,354.35 28.04,452.42 29.11,37.31 86.47,34.59 121.21,-4.76l406.85 -507.19 -336.5 556.49c-24.99,46.05 -7.71,100.97 37.12,115.33 118.49,38.19 296.32,51.05 434.8,-129.21 228,-296.66 -19.7,-708.51 -19.7,-708.51 0,0 -471.92,-90.69 -671.83,225.43z"/>
  <path class="fil2" d="M10848.78 4652.82c-173.56,146.15 -153.18,323.16 -110.24,439.56 16.45,44.49 72.11,59.24 116.94,32.36l541.4 -360.32 -489.19 428.59c-37.65,36.29 -37.99,93.85 0.49,121.21 101.36,72.25 266.72,138.14 453.28,8.54 307.24,-213.6 195.98,-681.25 195.98,-681.25 0,0 -422.09,-229.36 -708.66,11.31z"/>
  <path class="fil2" d="M10995.66 9643.02c-119.46,-192.93 -297.48,-198.55 -419.03,-172.88 -46.2,9.75 -69,62.65 -48.77,110.92l277.79 588.13 -352.95 -546.35c-30.47,-42.65 -87.28,-51.19 -119.99,-17.13 -86.27,89.86 -175.6,243.92 -74.29,447.27 166.71,334.99 645.48,292.87 645.48,292.87 0,0 288.27,-384.43 91.76,-702.83z"/>
  <path class="fil2" d="M12690.12 7510.21c-189.67,177.01 -156.29,377.59 -100.48,508.21 21.2,49.63 85.4,63.32 135.23,29.94l597.2 -441.94 -533.88 516.9c-40.91,43.53 -37.99,109.22 7.52,138.34 119.85,76.52 312.38,142.41 517.82,-16.25 338.39,-261.38 184.67,-788.43 184.67,-788.43 0,0 -494.87,-237.75 -808.08,53.23z"/>
  <path class="fil3" d="M5822.64 12264.73c0,171.47 -138.97,310.3 -310.49,310.3 -171.38,0 -310.35,-138.83 -310.35,-310.3 0,-171.38 138.97,-310.34 310.35,-310.34 171.52,0 310.49,138.97 310.49,310.34z"/>
  <path class="fil3" d="M6026.18 12904.05c-165.22,-242.75 -445.23,-349.55 -714.33,-251.83 -131.98,47.94 -243.73,148.23 -327.96,272.89 -205.93,304.52 -462.36,724.37 -377.26,825.74 65.36,77.88 365.95,-294.63 449.65,-401.57l21.74 10.24c5.14,242.76 36.83,1448.13 176.81,1542.99l12.71 -1.07c18.29,-17.76 69.82,-101.65 83.85,-502.53 1.55,-41.1 10.63,-81.81 28.92,-118.44 24.85,-49.49 67.64,-106.51 131.84,-106.51 62.79,0 105.1,54.44 130.08,102.92 19.85,38.33 29.26,81.47 30.81,124.61 14.22,396.42 65.02,481.33 83.5,499.63l13.05 1.4c139.99,-95.2 171.67,-1300.23 176.81,-1542.99l21.74 -10.24c83.7,106.94 400.88,390.94 466.43,312.87 86.96,-103.54 -200.44,-452.56 -408.4,-758.1z"/>
  <path class="fil3" d="M7672.86 12018.58c0,177.15 -143.62,320.78 -320.77,320.78 -177.34,0 -320.97,-143.63 -320.97,-320.78 0,-177.34 143.63,-320.97 320.97,-320.97 177.15,0 320.77,143.63 320.77,320.97z"/>
  <path class="fil3" d="M7883.39 12761.78c-170.84,-260.03 -460.47,-374.54 -738.59,-269.58 -136.25,51.33 -251.83,158.66 -338.92,292.19 -212.96,326.06 -478.08,775.91 -390.11,884.45 67.59,83.5 378.28,-315.49 464.88,-430.15l22.42 10.92c5.34,260.02 38.04,1551.18 182.84,1652.88l13.19 -1.4c18.83,-18.83 72.06,-108.83 86.76,-538.16 1.4,-44.01 10.82,-87.63 29.79,-126.84 25.67,-52.88 69.87,-114.17 136.44,-114.17 64.87,0 108.49,58.37 134.35,110.39 20.38,40.9 30.33,87.14 31.83,133.53 14.75,424.51 67.3,515.4 86.27,534.9l13.54 1.55c144.79,-101.85 177.49,-1392.66 182.83,-1652.69l22.42 -10.92c86.61,114.66 414.56,539.17 482.21,455.67 89.86,-110.92 -207.14,-605.3 -422.14,-932.58z"/>
  <path class="fil3" d="M9445.88 12819.82c0,140.37 -113.83,254.01 -254.05,254.01 -140.33,0 -254.01,-113.64 -254.01,-254.01 0,-140.18 113.68,-254.01 254.01,-254.01 140.22,0 254.05,113.83 254.05,254.01z"/>
  <path class="fil3" d="M11352.39 12175.35c0,177.34 -143.63,320.97 -320.78,320.97 -177.34,0 -320.97,-143.63 -320.97,-320.97 0,-177.15 143.63,-320.77 320.97,-320.77 177.15,0 320.78,143.62 320.78,320.77z"/>
  <path class="fil3" d="M11562.92 12836.27c-170.66,-250.95 -460.47,-361.34 -738.59,-260.18 -136.25,49.45 -251.83,153.19 -338.92,282.05 -212.97,314.81 -477.94,748.88 -390.11,853.64 67.78,80.65 378.27,-304.52 465.08,-415.1l22.27 10.48c5.29,250.9 38.14,1497.23 182.78,1595.34l13.2 -1.22c18.83,-18.34 72.05,-105.1 86.75,-519.51 1.41,-42.46 10.82,-84.57 29.98,-122.57 25.48,-51 69.68,-110.05 136.25,-110.05 64.87,0 108.55,56.29 134.36,106.46 20.57,39.74 30.33,84.23 31.83,128.92 14.75,409.76 67.3,497.4 86.47,516.42l13.34 1.55c144.84,-98.45 177.49,-1344.43 182.83,-1595.34l22.42 -10.48c86.61,110.58 397.3,495.75 464.89,415.1 90.05,-107.14 -189.82,-559.55 -404.82,-875.52z"/>
  <path class="fil3" d="M12956.94 12539.12c0,153.52 -124.61,278.13 -278.13,278.13 -153.57,0 -278.17,-124.61 -278.17,-278.13 0,-153.57 124.6,-278.17 278.17,-278.17 153.52,0 278.13,124.6 278.13,278.17z"/>
  <path class="fil3" d="M13043.41 13021.13c-127.37,-141.93 -318.74,-200.79 -500.7,-146.88 -91.41,27.02 -173.22,84.91 -239.99,159.87 -176.27,197.68 -492.1,526.51 -367.31,676.15 50.8,61.09 319.37,-316.02 392.64,-394.38l15.91 7.32c-12.12,183.51 -88.98,1444.2 53.28,1578.55l14.02 -1.7c21.06,-25.48 81.32,-143.43 112.82,-641.56 2.91,-45.71 13,-90.2 31.29,-129.41 24.31,-51.87 64.73,-110.39 123.44,-110.39 57.36,0 97.05,55.8 121.5,106.61 19.89,41.1 30.32,88.02 33.38,136.3 31.35,492.44 90.92,611.56 112.33,637.96l14.36 2.04c142.26,-134.55 65.41,-1394.89 53.23,-1578.41l15.92 -7.32c73.27,78.36 361,378.95 403.99,312.19 55.12,-85.4 -213.64,-409.96 -390.11,-606.95z"/>
  <path class="fil3" d="M9629.68 13880.59l-10.43 0c-31.63,0 -57.35,-22.61 -57.35,-50.65l0 -44.54c0,-27.9 25.72,-50.66 57.35,-50.66 31.84,0 57.55,-22.75 57.55,-50.85l0 -462.99c0,-28.09 -25.72,-50.7 -57.55,-50.7l-856.21 0c-31.64,0 -57.36,22.61 -57.36,50.7l0 462.99c0,28.1 25.72,50.85 57.36,50.85 31.68,0 57.54,22.76 57.54,50.66l0 44.54c0,28.05 -25.86,50.65 -57.54,50.65l-10.24 0c-27.42,0 -51.05,17.13 -56.34,40.91l-79.91 355.17c-7.23,31.49 19.99,60.75 56.28,60.75l1036.81 0c36.1,0 63.32,-29.26 56.33,-60.75l-79.96 -355.17c-5.49,-23.77 -28.92,-40.91 -56.34,-40.91z"/>
  <polygon class="fil3" points="8616.55,14284.73 9767,14284.73 9767,14447.33 8616.55,14447.33 "/>
  <path class="fil3" d="M8576.47 13937.95l-57.5 0c-10.48,0 -19.02,216.36 -19.02,483.18 0,266.72 8.54,483.08 19.02,483.08l57.5 0c10.43,0 19.02,-216.36 19.02,-483.08 0,-266.82 -8.59,-483.18 -19.02,-483.18z"/>
  <path class="fil3" d="M9864.57 13937.95l-57.35 0c-10.63,0 -19.17,216.36 -19.17,483.18 0,266.72 8.54,483.08 19.17,483.08l57.35 0c10.58,0 19.17,-216.36 19.17,-483.08 0,-266.82 -8.59,-483.18 -19.17,-483.18z"/>
  <path class="fil3" d="M9541.56 13367.77c-91.27,-109.41 -217.56,-171.72 -349.89,-171.19l0 1162.77c47.06,0 78.75,40.56 97.23,76.52 14.9,29.11 21.89,60.74 23.1,92.92 10.29,295.79 48.61,359.3 62.3,372.99l9.75 1.07c104.42,-71.04 128.05,-970.39 131.78,-1151.32l3.64 -53.08c174.58,22.75 597.35,70.21 611.42,-2.04 17.62,-91.22 -589.34,-328.64 -589.34,-328.64z"/>
  <path class="fil3" d="M8841.25 13367.77c0,0 -606.95,237.42 -589.15,328.64 14.02,72.25 436.65,24.79 611.42,2.04l3.44 53.08c3.93,180.93 27.37,1080.28 131.79,1151.32l9.94 -1.07c13.49,-13.68 51.87,-77.2 62.3,-372.99 1.02,-32.17 8.2,-63.81 22.9,-92.92 18.49,-35.96 50.37,-76.52 97.24,-76.52l0 -1162.77c-132.32,-0.53 -258.48,61.77 -349.89,171.19z"/>
  <path class="fil3" d="M9193.38 136.39c-4993.98,0 -9056.92,4062.8 -9056.92,9056.78 0,4993.98 4062.95,9056.92 9056.92,9056.92 4993.98,0 9056.78,-4062.95 9056.78,-9056.92 0,-4993.98 -4062.8,-9056.78 -9056.78,-9056.78zm0 18250.15c-5069.29,0 -9193.37,-4124.08 -9193.37,-9193.37 0,-5069.14 4124.08,-9193.17 9193.37,-9193.17 5069.14,0 9193.37,4124.03 9193.37,9193.17 0,5069.29 -4124.23,9193.37 -9193.37,9193.37z"/>
 </g>
</svg>
