<?xml version="1.0" encoding="UTF-8"?>
<!DOCTYPE svg PUBLIC "-//W3C//DTD SVG 1.1//EN" "http://www.w3.org/Graphics/SVG/1.1/DTD/svg11.dtd">
<!-- Creator: CorelDRAW 2023 -->
<svg xmlns="http://www.w3.org/2000/svg" xml:space="preserve" width="358.25mm" height="358.25mm" version="1.1" style="shape-rendering:geometricPrecision; text-rendering:geometricPrecision; image-rendering:optimizeQuality; fill-rule:evenodd; clip-rule:evenodd"
viewBox="0 0 31446.29 31446.29"
 xmlns:xlink="http://www.w3.org/1999/xlink"
 xmlns:xodm="http://www.corel.com/coreldraw/odm/2003">
 <defs>
  <style type="text/css">
   <![CDATA[
    .fil0 {fill:none}
    .fil3 {fill:#95683B;fill-rule:nonzero}
    .fil2 {fill:#567C39;fill-rule:nonzero}
    .fil1 {fill:#354066;fill-rule:nonzero}
   ]]>
  </style>
 </defs>
 <g id="Layer_x0020_1">
  <metadata id="CorelCorpID_0Corel-Layer"/>
  <rect class="fil0" width="31446.29" height="31446.29"/>
  <g id="_105553277160192">
   <path class="fil1" d="M4491.2 21117.59c-135.33,0 -261.01,-22.38 -376.85,-67.18 -115.95,-44.86 -216.68,-108.29 -302.07,-190.39 -85.53,-82.08 -151.96,-179 -199.28,-290.67 -47.41,-111.73 -71.08,-233.53 -71.08,-365.5 0,-132.03 23.67,-253.81 71.08,-365.57 47.32,-111.58 114.22,-208.41 200.55,-290.57 86.29,-82.1 186.94,-145.54 302.07,-190.4 115.02,-44.79 241.09,-67.26 378.22,-67.26 145.45,0 278.31,24.95 398.45,74.9 120.11,49.87 221.68,123.94 304.59,222.07l-213.15 200.5c-64.41,-69.3 -136.24,-121.42 -215.77,-156.09 -79.61,-34.61 -165.89,-52 -258.93,-52 -93.09,0 -178.18,15.23 -255.1,45.63 -77.06,30.56 -143.85,73.69 -200.56,129.48 -56.68,55.82 -100.65,121.86 -131.96,197.96 -31.29,76.17 -46.96,159.99 -46.96,251.34 0,91.38 15.67,175.11 46.96,251.28 31.32,76.17 75.29,142.16 131.96,198.03 56.71,55.79 123.5,98.93 200.56,129.42 76.92,30.4 162.01,45.69 255.1,45.69 93.04,0 179.31,-17.39 258.93,-52.06 79.53,-34.69 151.35,-87.55 215.77,-158.63l213.15 203.05c-82.91,96.45 -184.47,170.08 -304.59,220.86 -120.14,50.79 -253.83,76.09 -401.08,76.09z"/>
   <path class="fil1" d="M5656.35 20681.03l88.83 -258.93 959.48 0 88.82 258.93 -1137.13 0zm-368.1 411.25l799.59 -1776.82 324.88 0 802.06 1776.82 -345.18 0 -687.86 -1601.71 131.97 0 -685.3 1601.71 -340.16 0z"/>
   <path class="fil1" d="M8666.77 21092.28l-449.29 -644.79 352.82 0 451.78 644.79 -355.31 0zm-832.6 -632.05l-147.25 -157.36 533.11 0c145.45,0 255.1,-31.29 328.71,-93.98 73.56,-62.54 110.4,-149.71 110.4,-261.38 0,-113.39 -36.84,-200.58 -110.4,-261.47 -73.61,-60.95 -183.26,-91.35 -328.71,-91.35l-533.11 0 147.25 -162.46 0 1028.01zm-330 632.05l0 -1776.82 731.06 0c157.36,0 292.32,25.31 404.81,76.09 112.57,50.87 199.29,123.58 260.26,218.33 60.89,94.82 91.29,207.38 91.29,337.63 0,130.31 -30.4,242.42 -91.29,336.28 -60.97,93.9 -147.69,165.89 -260.26,215.77 -112.5,49.95 -247.45,74.9 -404.81,74.9l-548.31 0 147.25 -149.72 0 667.55 -330 0z"/>
   <path class="fil1" d="M9727.75 20054.15l883.3 0 0 271.57 -883.3 0 0 -271.57zm25.39 761.46l1002.62 0 0 276.67 -1332.62 0 0 -1776.82 1297.12 0 0 276.67 -967.12 0 0 1223.48z"/>
   <path class="fil1" d="M12068.08 20681.03l88.83 -258.93 959.48 0 88.82 258.93 -1137.13 0zm-368.11 411.25l799.57 -1776.82 324.91 0 802.05 1776.82 -345.2 0 -687.83 -1601.71 131.96 0 -685.29 1601.71 -340.17 0z"/>
   <polygon class="fil1" points="14187.52,21092.28 14187.52,19594.69 13598.63,19594.69 13598.63,19315.47 15106.34,19315.47 15106.34,19594.69 14517.53,19594.69 14517.53,21092.28 "/>
   <polygon class="fil1" points="16182.59,21092.28 16182.59,19315.47 16454.23,19315.47 17568.54,20683.57 17434.03,20683.57 17434.03,19315.47 17761.39,19315.47 17761.39,21092.28 17489.82,21092.28 16375.53,19724.11 16510.05,19724.11 16510.05,21092.28 "/>
   <path class="fil1" d="M19556.02 21092.28l0 -236.09 -40.66 -38.1 0 -634.53 312.23 0 0 908.72 -271.57 0zm-477.15 25.31c-121.86,0 -236.97,-19.47 -345.26,-58.35 -108.3,-38.87 -204.32,-96.83 -288.05,-173.83 -83.82,-76.98 -149.8,-171.34 -198.02,-283.01 -48.23,-111.76 -72.35,-240.26 -72.35,-385.86 0,-137.06 23.74,-261.83 71.08,-374.41 47.41,-112.48 114.58,-210.16 201.75,-293.12 87.2,-82.84 189.2,-146.81 305.89,-191.67 116.77,-44.79 244.53,-67.26 383.31,-67.26 150.61,0 286.4,24.56 407.37,73.63 121.01,49.06 222.96,121.04 305.87,215.76l-208.15 202.99c-69.34,-69.29 -144.24,-120.53 -224.68,-153.47 -80.29,-33.04 -168.74,-49.52 -265.21,-49.52 -93.01,0 -179.29,15.23 -258.84,45.63 -79.61,30.56 -148.14,73.69 -205.65,129.48 -57.6,55.82 -101.93,122.7 -133.24,200.59 -31.32,77.81 -47.03,164.08 -47.03,258.84 0,101.54 16.1,190.81 48.3,267.82 32.12,77 76.53,141.71 133.24,194.13 56.69,52.5 120.95,92.35 192.92,119.38 71.91,27.04 147.63,40.59 227.17,40.59 93.03,0 183.64,-19.02 271.57,-57.06 88,-38.11 161.54,-96.92 220.86,-176.44l139.61 175.1c-59.23,115.11 -147.26,200.56 -264,256.35 -116.76,55.8 -249.62,83.74 -398.45,83.74z"/>
   <path class="fil1" d="M21089.13 21117.59c-243.7,0 -434.53,-68.45 -572.42,-205.57 -137.96,-137.06 -206.87,-335.01 -206.87,-593.94l0 -1002.61 329.92 0 0 989.89c0,182.81 39.4,315.67 118.12,398.52 78.64,82.98 189.86,124.41 333.72,124.41 143.88,0 254.65,-41.42 332.54,-124.41 77.81,-82.84 116.77,-215.7 116.77,-398.52l0 -989.89 324.88 0 0 1002.61c0,258.93 -68.91,456.87 -206.87,593.94 -137.87,137.13 -327.88,205.57 -569.8,205.57z"/>
   <path class="fil1" d="M23553.78 21092.28l-449.29 -644.79 352.91 0 451.76 644.79 -355.38 0zm-832.53 -632.05l-147.24 -157.36 533.03 0c145.6,0 255.08,-31.29 328.71,-93.98 73.63,-62.54 110.4,-149.71 110.4,-261.38 0,-113.39 -36.77,-200.58 -110.4,-261.47 -73.63,-60.95 -183.11,-91.35 -328.71,-91.35l-533.03 0 147.24 -162.46 0 1028.01zm-329.98 632.05l0 -1776.82 731.05 0c157.34,0 292.24,25.31 404.79,76.09 112.57,50.87 199.32,123.58 260.2,218.33 60.95,94.82 91.38,207.38 91.38,337.63 0,130.31 -30.42,242.42 -91.38,336.28 -60.88,93.9 -147.63,165.89 -260.2,215.77 -112.56,49.95 -247.45,74.9 -404.79,74.9l-548.31 0 147.24 -149.72 0 667.55 -329.98 0z"/>
   <path class="fil1" d="M25472.76 21092.28l-449.29 -644.79 352.91 0 451.76 644.79 -355.38 0zm-832.53 -632.05l-147.26 -157.36 533.05 0c145.51,0 255.08,-31.29 328.71,-93.98 73.62,-62.54 110.4,-149.71 110.4,-261.38 0,-113.39 -36.78,-200.58 -110.4,-261.47 -73.63,-60.95 -183.2,-91.35 -328.71,-91.35l-533.05 0 147.26 -162.46 0 1028.01zm-329.98 632.05l0 -1776.82 730.98 0c157.42,0 292.32,25.31 404.87,76.09 112.57,50.87 199.23,123.58 260.18,218.33 60.97,94.82 91.38,207.38 91.38,337.63 0,130.31 -30.41,242.42 -91.38,336.28 -60.95,93.9 -147.62,165.89 -260.18,215.77 -112.56,49.95 -247.45,74.9 -404.87,74.9l-548.25 0 147.26 -149.72 0 667.55 -329.98 0z"/>
   <path class="fil1" d="M26345.89 20681.03l88.83 -258.93 959.48 0 88.82 258.93 -1137.13 0zm-368.1 411.25l799.65 -1776.82 324.82 0 802.12 1776.82 -345.18 0 -687.92 -1601.71 132.03 0 -685.35 1601.71 -340.17 0z"/>
   <path class="fil2" d="M6886.67 22476.63l339.94 0 0 57.9 -339.94 0 0 -57.9zm7.34 296.82l386.84 0 0 58.79 -454.85 0 0 -643.13 441.06 0 0 58.87 -373.04 0 0 525.46z"/>
   <polygon class="fil2" points="7532.55,22832.24 7532.55,22189.12 7588.58,22189.12 7882.62,22690.76 7853.19,22690.76 8144.38,22189.12 8200.47,22189.12 8200.47,22832.24 8135.23,22832.24 8135.23,22291.12 8150.81,22291.12 7882.62,22750.46 7850.41,22750.46 7580.28,22291.12 7597.79,22291.12 7597.79,22832.24 "/>
   <path class="fil2" d="M8569.79 22602.62l-30.34 -33.1 201.24 0c64.26,0 113.09,-13.93 146.49,-41.87 33.42,-27.87 50.03,-67.19 50.03,-118.03 0,-51.46 -16.62,-91.23 -50.03,-119.38 -33.4,-28.24 -82.23,-42.25 -146.49,-42.25l-201.24 0 30.34 -32.21 0 386.84zm-68.02 229.63l0 -643.13 240.73 0c54.52,0 101.33,8.68 140.56,26.13 39.18,17.54 69.36,42.63 90.49,75.35 21.12,32.82 31.67,72.5 31.67,119.02 0,45.3 -10.55,84.33 -31.67,117.12 -21.13,32.74 -51.31,58.06 -90.49,75.88 -39.23,17.68 -86.04,26.58 -140.56,26.58l-203.05 0 30.34 -32.13 0 235.17 -68.02 0z"/>
   <path class="fil2" d="M9534.42 22777.13c38.58,0 74.22,-6.6 107.04,-19.77 32.71,-13.18 61.19,-31.85 85.45,-56.03 24.12,-24.2 42.99,-52.35 56.48,-84.56 13.48,-32.14 20.21,-67.49 20.21,-106.13 0,-38.49 -6.72,-73.93 -20.21,-106.04 -13.48,-32.21 -32.35,-60.38 -56.48,-84.56 -24.26,-24.21 -52.74,-42.84 -85.45,-56.03 -32.82,-13.18 -68.47,-19.77 -107.04,-19.77 -38.55,0 -74.43,6.58 -107.47,19.77 -33.09,13.18 -61.72,31.82 -85.98,56.03 -24.12,24.17 -43.14,52.35 -56.91,84.56 -13.78,32.12 -20.68,67.55 -20.68,106.04 0,38.04 6.9,73.18 20.68,105.68 13.77,32.5 32.79,60.8 56.91,85 24.26,24.18 52.89,42.84 85.98,56.03 33.04,13.17 68.91,19.77 107.47,19.77zm0 60.65c-48.38,0 -93.24,-8.09 -134.57,-24.42 -41.33,-16.18 -77.22,-39.17 -107.55,-68.83 -30.26,-29.72 -53.84,-64.32 -70.7,-103.88 -16.85,-39.46 -25.24,-82.76 -25.24,-130.02 0,-47.11 8.39,-90.48 25.24,-129.95 16.85,-39.47 40.44,-74.14 70.7,-103.8 30.34,-29.75 66.07,-52.65 107.11,-68.91 40.97,-16.24 85.98,-24.33 135.02,-24.33 48.32,0 93.1,8.09 134.16,24.33 40.95,16.27 76.68,39.02 107.02,68.47 30.34,29.36 53.84,63.95 70.7,103.8 16.86,39.85 25.24,83.28 25.24,130.39 0,47.26 -8.38,90.7 -25.24,130.46 -16.85,39.84 -40.36,74.45 -70.7,103.81 -30.34,29.42 -66.07,52.26 -107.02,68.44 -41.06,16.33 -85.84,24.42 -134.16,24.42z"/>
   <polygon class="fil2" points="10242.8,22832.24 10025.91,22189.12 10095.78,22189.12 10298.82,22794.58 10263.92,22794.58 10473.4,22189.12 10535.85,22189.12 10742.57,22794.58 10709.47,22794.58 10914.39,22189.12 10979.61,22189.12 10762.72,22832.24 10691.11,22832.24 10493.54,22258.03 10511.97,22258.03 10313.49,22832.24 "/>
   <path class="fil2" d="M11256.13 22476.63l339.95 0 0 57.9 -339.95 0 0 -57.9zm7.34 296.82l386.76 0 0 58.79 -454.78 0 0 -643.13 440.99 0 0 58.87 -372.98 0 0 525.46z"/>
   <path class="fil2" d="M12341.14 22832.24l-165.36 -233.37 73.45 0 166.28 233.37 -74.37 0zm-371.19 -229.63l-30.34 -32.21 201.26 0c64.24,0 113.09,-14.08 146.48,-42.32 33.4,-28.09 50.1,-67.64 50.1,-118.48 0,-51.46 -16.7,-91.23 -50.1,-119.38 -33.39,-28.24 -82.25,-42.25 -146.48,-42.25l-201.26 0 30.34 -32.21 0 386.84zm-68 229.63l0 -643.13 240.71 0c54.54,0 101.42,8.68 140.58,26.13 39.17,17.54 69.36,42.63 90.46,75.35 21.21,32.82 31.7,72.5 31.7,119.02 0,45.3 -10.49,84.33 -31.7,117.12 -21.1,32.74 -51.3,57.9 -90.46,75.35 -39.17,17.45 -86.05,26.22 -140.58,26.22l-203.05 0 30.34 -31.23 0 235.17 -68 0z"/>
   <polygon class="fil2" points="12658.08,22189.12 12726.11,22189.12 12726.11,22832.24 12658.08,22832.24 "/>
   <polygon class="fil2" points="13027.4,22832.24 13027.4,22189.12 13083.43,22189.12 13527.18,22747.68 13497.82,22747.68 13497.82,22189.12 13564.85,22189.12 13564.85,22832.24 13508.82,22832.24 13065.98,22273.67 13095.41,22273.67 13095.41,22832.24 "/>
   <path class="fil2" d="M14319.13 22747.68l0 -237.03 65.22 0 0 245.28 -65.22 -8.24zm-170.83 90.1c-49.07,0 -94.22,-8.09 -135.58,-24.42 -41.33,-16.18 -77.13,-39.02 -107.47,-68.44 -30.34,-29.36 -53.92,-63.97 -70.78,-103.81 -16.77,-39.76 -25.24,-83.2 -25.24,-130.46 0,-47.11 8.47,-90.54 25.24,-130.39 16.86,-39.85 40.6,-74.44 71.23,-103.8 30.63,-29.45 66.66,-52.2 107.93,-68.47 41.33,-16.24 86.57,-24.33 135.55,-24.33 48.98,0 93.84,7.65 134.58,22.91 40.76,15.35 75.5,38.66 104.26,69.89l-42.25 43.14c-26.97,-26.97 -56.69,-46.22 -89.13,-57.9 -32.42,-11.61 -67.4,-17.45 -104.68,-17.45 -39.85,0 -76.47,6.58 -109.8,19.77 -33.42,13.18 -62.46,31.82 -87.34,56.03 -24.78,24.17 -44.1,52.35 -57.81,84.56 -13.78,32.12 -20.74,67.55 -20.74,106.04 0,38.04 6.96,73.18 20.74,105.68 13.71,32.5 33.03,60.8 57.81,85 24.88,24.18 53.92,42.84 87.34,56.03 33.33,13.17 69.65,19.77 108.83,19.77 36.77,0 71.52,-5.54 104.32,-16.56 32.71,-11 62.9,-29.72 90.46,-56.03l38.57 51.38c-30.63,27.04 -66.42,47.34 -107.47,61.21 -41.04,13.77 -83.96,20.65 -128.59,20.65z"/>
   <polygon class="fil2" points="15000.81,22832.24 15000.81,22189.12 15068.75,22189.12 15068.75,22773.45 15428.92,22773.45 15428.92,22832.24 "/>
   <polygon class="fil2" points="15633.83,22189.12 15701.76,22189.12 15701.76,22832.24 15633.83,22832.24 "/>
   <polygon class="fil2" points="16178.55,22832.24 15893.8,22189.12 15967.27,22189.12 16233.67,22794.58 16193.31,22794.58 16461.57,22189.12 16530.4,22189.12 16245.66,22832.24 "/>
   <path class="fil2" d="M16775.76 22476.63l339.96 0 0 57.9 -339.96 0 0 -57.9zm7.41 296.82l386.77 0 0 58.79 -454.77 0 0 -643.13 440.99 0 0 58.87 -372.99 0 0 525.46z"/>
   <path class="fil2" d="M17599.02 22837.78c-47.87,0 -93.62,-7.86 -137.35,-23.44 -43.82,-15.65 -77.68,-35.65 -101.57,-60.22l26.58 -52.35c22.69,22.1 53.18,40.59 91.46,55.58 38.26,15.05 78.55,22.52 120.89,22.52 40.36,0 73.24,-5.09 98.7,-15.2 25.39,-10.1 44.12,-23.66 56.03,-40.8 11.91,-17.24 17.99,-36.17 17.99,-57 0,-25.16 -7.29,-45.39 -21.58,-60.68 -14.46,-15.26 -33.33,-27.32 -56.56,-36.32 -23.29,-8.83 -49.06,-16.63 -77.15,-23.35 -28.22,-6.76 -56.39,-13.93 -84.54,-21.58 -28.24,-7.64 -54.07,-17.9 -77.68,-30.78 -23.59,-12.89 -42.61,-29.89 -56.91,-51.02 -14.38,-21.1 -21.64,-48.89 -21.64,-83.12 0,-31.91 8.45,-61.12 25.31,-87.7 16.86,-26.67 42.69,-48.08 77.6,-64.35 34.9,-16.24 79.61,-24.33 134.22,-24.33 36.09,0 71.97,5.01 107.47,15.12 35.5,10.13 66.13,24.06 91.9,41.81l-22.99 54.22c-27.64,-18.35 -56.85,-31.83 -87.71,-40.45 -31.01,-8.53 -60.82,-12.8 -89.65,-12.8 -38.58,0 -70.49,5.16 -95.58,15.56 -25.08,10.42 -43.59,24.35 -55.56,41.8 -11.91,17.45 -17.9,37.22 -17.9,59.23 0,25.1 7.18,45.33 21.58,60.68 14.37,15.28 33.39,27.25 56.98,35.79 23.52,8.62 49.45,16.27 77.68,23 28.07,6.75 56.15,14.07 84.03,22.01 27.85,8.02 53.54,18.28 77.13,30.78 23.61,12.59 42.55,29.3 56.91,50.1 14.46,20.83 21.65,48.08 21.65,81.8 0,31.23 -8.53,60.15 -25.77,86.79 -17.13,26.61 -43.28,48.08 -78.49,64.26 -35.2,16.33 -80.35,24.42 -135.47,24.42z"/>
   <polygon class="fil2" points="18557.14,22832.24 18340.4,22189.12 18410.12,22189.12 18613.26,22794.58 18578.27,22794.58 18787.74,22189.12 18850.29,22189.12 19056.92,22794.58 19023.89,22794.58 19228.79,22189.12 19293.98,22189.12 19077.15,22832.24 19005.54,22832.24 18807.97,22258.03 18826.32,22258.03 18627.92,22832.24 "/>
   <polygon class="fil2" points="19509.88,22189.12 19577.89,22189.12 19577.89,22832.24 19509.88,22832.24 "/>
   <polygon class="fil2" points="20004.12,22832.24 20004.12,22247.99 19778.09,22247.99 19778.09,22189.12 20298.16,22189.12 20298.16,22247.99 20072.13,22247.99 20072.13,22832.24 "/>
   <path class="fil2" d="M20968.78 22189.12l67.11 0 0 643.13 -67.11 0 0 -643.13zm-409.76 286.72l416.28 0 0 59.67 -416.28 0 0 -59.67zm-60.59 -286.72l68.02 0 0 643.13 -68.02 0 0 -643.13z"/>
   <path class="fil2" d="M21949.08 22837.78c-48.38,0 -93.09,-8.09 -134.13,-24.42 -41.05,-16.18 -76.55,-39.02 -106.57,-68.44 -30.04,-29.36 -53.41,-63.97 -70.25,-103.81 -16.86,-39.76 -25.33,-83.2 -25.33,-130.46 0,-47.11 8.47,-90.54 25.33,-130.39 16.84,-39.85 40.44,-74.44 70.7,-103.8 30.34,-29.45 65.98,-52.2 107.11,-68.47 40.95,-16.24 85.66,-24.33 134.04,-24.33 46.51,0 90.33,7.79 131.37,23.36 41.12,15.67 75.65,39.02 103.8,70.25l-43.13 43.22c-26.35,-26.96 -55.41,-46.36 -87.24,-58.34 -31.91,-11.91 -66.13,-17.9 -102.98,-17.9 -38.49,0 -74.37,6.58 -107.4,19.77 -33.1,13.18 -61.93,31.82 -86.35,56.03 -24.5,24.17 -43.67,52.35 -57.45,84.56 -13.77,32.12 -20.67,67.55 -20.67,106.04 0,38.64 6.9,73.99 20.67,106.13 13.78,32.21 32.95,60.36 57.45,84.56 24.42,24.18 53.25,42.84 86.35,56.03 33.03,13.17 68.91,19.77 107.4,19.77 36.85,0 71.07,-6.14 102.98,-18.43 31.83,-12.2 60.89,-31.82 87.24,-58.72l43.13 43.14c-28.15,31.23 -62.67,54.83 -103.8,70.7 -41.04,15.97 -85.08,23.97 -132.26,23.97z"/>
   <path class="fil2" d="M22418.61 22660.45l20.21 -55.13 373.89 0 20.22 55.13 -414.31 0zm-115.79 171.8l294.04 -643.13 67.02 0 294.04 643.13 -71.76 0 -270.06 -603.66 27.58 0 -270.15 603.66 -70.7 0z"/>
   <path class="fil2" d="M23595.44 22832.24l-165.39 -233.37 73.48 0 166.34 233.37 -74.43 0zm-371.19 -229.63l-30.25 -32.21 201.15 0c64.35,0 113.18,-14.08 146.58,-42.32 33.33,-28.09 50.03,-67.64 50.03,-118.48 0,-51.46 -16.7,-91.23 -50.03,-119.38 -33.4,-28.24 -82.23,-42.25 -146.58,-42.25l-201.15 0 30.25 -32.21 0 386.84zm-67.93 229.63l0 -643.13 240.64 0c54.52,0 101.42,8.68 140.65,26.13 39.1,17.54 69.27,42.63 90.49,75.35 21.03,32.82 31.67,72.5 31.67,119.02 0,45.3 -10.64,84.33 -31.67,117.12 -21.22,32.74 -51.38,57.9 -90.49,75.35 -39.23,17.45 -86.13,26.22 -140.65,26.22l-202.96 0 30.25 -31.23 0 235.17 -67.93 0z"/>
   <path class="fil2" d="M23973.06 22476.63l339.94 0 0 57.9 -339.94 0 0 -57.9zm7.32 296.82l386.84 0 0 58.79 -454.75 0 0 -643.13 440.98 0 0 58.87 -373.06 0 0 525.46z"/>
   <path class="fil3" d="M15590.01 9535.56l79.61 0 32.5 1637.73c67.19,-190.45 304.08,-434.92 549.88,-649.55 42.25,-76.86 88.61,-179.37 94.15,-270.07 10.4,-171.75 90.02,-389.17 90.02,-389.17l36.03 15.2c0,0 -67.85,156.53 -70.63,283.93 -1.33,88.68 -21.43,187.69 -53.31,277.71 282.49,-236.14 547.78,-418.28 547.78,-418.28l29.06 41.55c0,0 -626.73,448.7 -955.67,888.48 -328.86,439.72 -246.49,1047.05 -246.49,1047.05 108.77,-288.05 445.26,-475.07 652.34,-574.08 207.69,-99 295.01,-209.09 295.01,-209.09l26.28 26.28c-111.52,154.43 -446,317.18 -671.72,490.95 -225.06,173.15 -262.45,468.16 -262.45,468.16 -106.63,734.71 40.83,1585.09 40.83,1585.09 191.13,-354.57 771.5,-633.62 1058.1,-821.32 286.72,-187.61 417.62,-650.91 417.62,-650.91l35.29 0c-18.66,105.24 -50.55,206.34 -94.16,302.57 205.68,-115.64 560.22,-90.69 887.06,-85.15 205.68,4.88 315.1,-75.49 315.1,-75.49l18.04 13.18c-129.27,110.63 -302.21,103.44 -525.76,96.24 -59.17,-1.87 -121.86,-3.74 -188.2,-3.44 -254.87,1.42 -464.67,109.42 -569.97,175.85 -91.38,155.87 -217.42,294.34 -377.39,404.43 164.83,6.96 319.28,31.16 547.1,94.9 166.19,45.69 936.95,-11.08 936.95,-11.08l0 35.35c0,0 -767.31,90.02 -1008.98,21.42 -93.48,-26.28 -212.56,-42.91 -323.4,-53.33 -149.57,-14.52 -299.14,10.43 -439.05,66.52l-2.1 0.68c-466.69,184.92 -657.8,853.14 -657.8,853.14 -17.39,662.06 40.81,1368.42 116.3,1978.5 -67.85,-104.62 -186.26,-173.83 -319.96,-173.83 -130.17,0 -245.8,65.75 -315.08,165.51 74.81,-607.99 132.26,-1311.64 114.96,-1970.18 0,0 -191.14,-668.21 -658.54,-853.14l-1.42 -0.68c-139.84,-56.09 -289.41,-81.04 -439.04,-66.52 -110.78,10.43 -230.54,27.05 -324.08,53.33 -241.68,68.6 -1008.24,-21.42 -1008.24,-21.42l0 -35.35c0,0 770.74,56.77 936.95,11.08 227.14,-63.74 381.5,-87.94 547.01,-94.9 -159.97,-110.1 -285.94,-248.57 -378.07,-404.43 -105.3,-66.43 -314.39,-174.43 -569.95,-175.85 -66.36,-0.3 -129.05,1.57 -188.22,3.44 -223.47,7.2 -396.35,14.4 -525.01,-96.24l17.97 -13.18c0,0 109.44,80.37 315.09,75.49 326.15,-5.54 681.4,-30.49 886.38,85.15 -43.58,-96.23 -74.75,-197.33 -94.13,-302.57l35.26 0c0,0 130.93,463.31 418.3,650.91 286.01,187.69 866.98,466.75 1058.11,821.32 0,0 146.8,-850.38 40.89,-1585.09 0,0 -37.43,-295.01 -263.17,-468.16 -225.74,-173.77 -560.21,-336.52 -671.74,-490.95l27.05 -26.28c0,0 87.25,110.1 294.25,209.09 207.1,99.01 544.34,286.03 653.11,574.08 0,0 82.37,-607.33 -246.57,-1047.05 -329.62,-439.78 -956.34,-888.48 -956.34,-888.48l29.8 -41.55c0,0 264.53,182.14 547.04,418.28 -31.82,-90.02 -51.9,-189.03 -53.32,-277.71 -2.76,-127.4 -69.96,-283.93 -69.96,-283.93l35.35 -15.2c0,0 79.61,217.42 90.04,389.17 5.54,90.7 51.89,193.22 94.88,270.07 245.14,214.63 482.63,459.1 549.82,649.55l32.57 -1637.73z"/>
   <path class="fil2" d="M15004.49 12180.85c76.09,78.58 57.68,162.4 31.38,216.15 -9.96,20.46 -37.37,24.79 -57.6,9.74l-241.98 -199.08 213.69 229.27c16.26,19.23 13.63,46.81 -6.14,58.11 -52.14,29.66 -134.67,53.26 -217.8,-18.05 -136.77,-117.36 -60.67,-336.06 -60.67,-336.06 0,0 213.53,-89.42 339.13,39.91z"/>
   <path class="fil2" d="M15008.45 9509.8c-4.94,109.34 -78.55,153.45 -135.7,171.2 -21.72,6.82 -43.67,-10.1 -46.57,-35.2l-21.28 -312.61 -20.14 312.76c-2.78,25.01 -24.71,42.01 -46.51,35.44 -57.3,-17.6 -131.08,-61.42 -136.32,-170.78 -8.54,-180.11 202.75,-274.84 202.75,-274.84 0,0 211.66,93.98 203.78,274.03z"/>
   <path class="fil2" d="M15381.75 10080.79c-45.48,99.55 -130.18,112.95 -189.8,108.09 -22.75,-1.87 -36.77,-25.77 -30.1,-50.1l97.06 -297.86 -135.49 282.51c-11.97,22.23 -38.64,29.81 -56.39,15.5 -46.57,-37.67 -98.64,-105.98 -62.6,-209.33 59.37,-170.24 290.75,-179.16 290.75,-179.16 0,0 161.16,166.28 86.57,330.36z"/>
   <path class="fil2" d="M16002.62 9111.89c-9.07,200.71 -144.17,281.83 -249.18,314.39 -39.91,12.51 -80.29,-18.64 -85.6,-64.62l-39.1 -574.23 -36.92 574.44c-5.15,45.99 -45.39,77.22 -85.38,65.01 -105.31,-32.21 -240.86,-112.71 -250.37,-313.57 -15.74,-330.75 372.31,-504.81 372.31,-504.81 0,0 388.7,172.55 374.25,503.39z"/>
   <path class="fil2" d="M13769.25 11118.33c44.92,78.03 13.4,141.17 -18.36,178.78 -12.06,14.29 -34.81,12.27 -47.94,-3.76l-153.07 -207.37 124.47 225.71c9.13,18.66 1.42,40.09 -16.63,45.1 -47.49,13.26 -118.12,15.49 -170.1,-58.05 -85.53,-121.1 19.02,-280.33 19.02,-280.33 0,0 188.38,-28.47 262.6,99.92z"/>
   <path class="fil2" d="M13499.09 10214.8c97.13,102.3 72.35,210.16 37.81,279.13 -13.17,26.28 -48.53,31.53 -74.44,11.82l-309.56 -259.66 272.7 298.24c20.74,25.01 17.01,60.59 -8.68,74.81 -67.55,37.68 -174.27,67.03 -280.49,-25.92 -175.02,-153 -74.22,-434.01 -74.22,-434.01 0,0 276.52,-112.72 436.87,55.58z"/>
   <path class="fil2" d="M13357.76 13579.69c62.61,-64.65 132.03,-51.7 176.92,-31.47 17.06,7.71 21.34,30.11 9.51,47.18l-157.5 204.02 183.04 -181.54c15.35,-13.86 38.1,-12.44 47.92,3.59 25.68,42.01 47.26,109.35 -9.22,179.45 -93.01,115.56 -274.78,58.64 -274.78,58.64 0,0 -79.02,-173.31 24.11,-279.88z"/>
   <path class="fil2" d="M11985 12678.17c89.89,4.27 126.13,64.86 140.67,111.88 5.46,17.9 -8.47,35.96 -29.06,38.34l-257.21 17 257.21 17.01c20.59,2.31 34.6,20.38 29.06,38.28 -14.54,47.17 -50.72,107.84 -140.67,111.88 -148.14,6.75 -225.81,-167.17 -225.81,-167.17 0,0 77.67,-173.97 225.81,-167.22z"/>
   <path class="fil2" d="M12176.44 11324.87c71.22,54.99 66.22,125.39 51.17,172.26 -5.78,17.9 -27.56,24.65 -45.78,14.76l-220.56 -133.45 201.09 161.39c15.5,13.72 16.63,36.56 1.81,48.01 -38.88,30.34 -103.29,59.31 -179.37,11.08 -125.24,-79.38 -89.21,-266.4 -89.21,-266.4 0,0 163.35,-98.04 280.85,-7.65z"/>
   <path class="fil2" d="M13015.64 11027.17c104.11,147.4 52.95,279.37 -3.52,360.34 -21.49,30.77 -67.26,31 -96.3,1.28l-344.08 -385.74 290.22 427.75c21.72,35.5 10.4,79.76 -24.72,93.16 -92.41,35.2 -232.92,52.74 -350.35,-84.48 -193.3,-225.89 -13.93,-563.15 -13.93,-563.15 0,0 370.72,-91.67 542.68,150.84z"/>
   <path class="fil2" d="M12710.97 12949.81c152.79,13.11 210.46,118.64 232.17,199.68 8.24,30.86 -16.7,60.67 -51.96,63.37l-439.11 12.21 436.94 45.75c34.9,5.33 57.51,37.01 46.96,67.11 -27.79,79.32 -93.41,180.21 -246.87,181.33 -252.7,1.78 -373.5,-299.43 -373.5,-299.43 0,0 143.5,-291.13 395.37,-270.01z"/>
   <path class="fil2" d="M14129.63 11895.29c43.73,147.55 -33.78,240.12 -101.55,289.98 -25.83,19.05 -62.84,6.61 -78.18,-25.37l-172.11 -405.86 117.12 425.09c7.79,34.61 -13.54,67.26 -45.54,68.39 -84.33,3.08 -202.57,-21.28 -259.81,-164.24 -94.13,-235.48 143.13,-458.65 143.13,-458.65 0,0 324.59,27.56 396.95,270.66z"/>
   <path class="fil2" d="M14675.03 10778.61c99.44,157.8 39.53,291.19 -23.16,371.69 -23.88,30.7 -71.06,28.39 -99.53,-3.82l-334.34 -416.86 276.53 457.29c20.44,37.83 6.35,82.91 -30.63,94.82 -97.29,31.31 -243.34,41.86 -357.11,-106.19 -187.31,-243.71 16.12,-582.09 16.12,-582.09 0,0 387.73,-74.6 552.13,185.15z"/>
   <path class="fil2" d="M14269.16 9570.25c142.69,120.2 125.92,265.57 90.63,361.29 -13.48,36.48 -59.17,48.6 -96.09,26.44l-444.87 -295.91 402.04 352c30.93,29.89 31.22,77.15 -0.45,99.61 -83.2,59.32 -219.22,113.62 -372.47,7.05 -252.32,-175.55 -161.01,-559.63 -161.01,-559.63 0,0 346.84,-188.59 582.22,9.15z"/>
   <path class="fil2" d="M14148.51 13670.3c98.19,-158.55 244.46,-163.12 344.29,-142.08 37.98,8.02 56.62,51.53 40.15,91.23l-228.27 483.07 289.98 -448.85c25.02,-34.97 71.76,-42.1 98.64,-14.08 70.72,73.78 144.17,200.41 60.98,367.58 -136.98,275.1 -530.33,240.56 -530.33,240.56 0,0 -236.9,-315.9 -75.43,-577.44z"/>
   <path class="fil2" d="M12756.28 11917.99c155.94,145.36 128.46,310.21 82.69,417.47 -17.45,40.81 -70.25,52.03 -111.14,24.71l-490.65 -363.25 438.59 424.82c33.63,35.8 31.17,89.72 -6.21,113.6 -98.41,62.93 -256.65,117.07 -425.41,-13.39 -277.92,-214.72 -151.73,-647.77 -151.73,-647.77 0,0 406.68,-195.32 663.87,43.82z"/>
   <path class="fil2" d="M16254.11 12180.85c-76.09,78.58 -57.66,162.4 -31.38,216.15 9.96,20.46 37.37,24.79 57.6,9.74l241.98 -199.08 -213.69 229.27c-16.24,19.23 -13.63,46.81 6.22,58.11 52.05,29.66 134.6,53.26 217.71,-18.05 136.85,-117.36 60.74,-336.06 60.74,-336.06 0,0 -213.6,-89.42 -339.2,39.91z"/>
   <path class="fil2" d="M16250.15 9509.8c5.03,109.34 78.57,153.45 135.72,171.2 21.72,6.82 43.73,-10.1 46.58,-35.2l21.33 -312.61 20.08 312.76c2.84,25.01 24.72,42.01 46.5,35.44 57.3,-17.6 131.16,-61.42 136.32,-170.78 8.53,-180.11 -202.75,-274.84 -202.75,-274.84 0,0 -211.64,93.98 -203.78,274.03z"/>
   <path class="fil2" d="M15876.87 10080.79c45.46,99.55 130.17,112.95 189.78,108.09 22.78,-1.87 36.77,-25.77 30.1,-50.1l-97.06 -297.86 135.49 282.51c11.99,22.23 38.64,29.81 56.41,15.5 46.58,-37.67 98.7,-105.98 62.61,-209.33 -59.41,-170.24 -290.75,-179.16 -290.75,-179.16 0,0 -161.19,166.28 -86.58,330.36z"/>
   <path class="fil2" d="M17489.37 11118.33c-44.86,78.03 -13.42,141.17 18.35,178.78 12.14,14.29 34.84,12.27 47.94,-3.76l153.09 -207.37 -124.42 225.71c-9.13,18.66 -1.48,40.09 16.56,45.1 47.47,13.26 118.1,15.49 170.08,-58.05 85.62,-121.1 -19.02,-280.33 -19.02,-280.33 0,0 -188.36,-28.47 -262.58,99.92z"/>
   <path class="fil2" d="M17759.58 10214.8c-97.13,102.3 -72.42,210.16 -37.89,279.13 13.18,26.28 48.53,31.53 74.45,11.82l309.54 -259.66 -272.62 298.24c-20.83,25.01 -17.09,60.59 8.62,74.81 67.55,37.68 174.28,67.03 280.55,-25.92 174.94,-153 74.14,-434.01 74.14,-434.01 0,0 -276.5,-112.72 -436.79,55.58z"/>
   <path class="fil2" d="M17900.91 13579.69c-62.69,-64.65 -132.11,-51.7 -176.98,-31.47 -17.06,7.71 -21.36,30.11 -9.51,47.18l157.51 204.02 -183.05 -181.54c-15.34,-13.86 -38.13,-12.44 -47.94,3.59 -25.69,42.01 -47.26,109.35 9.3,179.45 92.93,115.56 274.7,58.64 274.7,58.64 0,0 79.02,-173.31 -24.03,-279.88z"/>
   <path class="fil2" d="M19273.6 12678.17c-89.87,4.27 -126.05,64.86 -140.58,111.88 -5.55,17.9 8.4,35.96 28.99,38.34l257.27 17 -257.27 17.01c-20.59,2.31 -34.54,20.38 -29.06,38.28 14.53,47.17 50.7,107.84 140.65,111.88 148.14,6.75 225.8,-167.17 225.8,-167.17 0,0 -77.66,-173.97 -225.8,-167.22z"/>
   <path class="fil2" d="M19082.16 11324.87c-71.23,54.99 -66.13,125.39 -51.15,172.26 5.76,17.9 27.56,24.65 45.76,14.76l220.56 -133.45 -201.01 161.39c-15.58,13.72 -16.7,36.56 -1.87,48.01 38.88,30.34 103.27,59.31 179.37,11.08 125.21,-79.38 89.19,-266.4 89.19,-266.4 0,0 -163.26,-98.04 -280.85,-7.65z"/>
   <path class="fil2" d="M18242.96 11027.17c-104.1,147.4 -52.95,279.37 3.52,360.34 21.51,30.77 67.26,31 96.39,1.28l343.99 -385.74 -290.22 427.75c-21.72,35.5 -10.4,79.76 24.74,93.16 92.41,35.2 232.92,52.74 350.34,-84.48 193.32,-225.89 14.02,-563.15 14.02,-563.15 0,0 -370.73,-91.67 -542.77,150.84z"/>
   <path class="fil2" d="M18547.63 12949.81c-152.78,13.11 -210.46,118.64 -232.18,199.68 -8.23,30.86 16.71,60.67 52,63.37l439.1 12.21 -436.94 45.75c-34.9,5.33 -57.53,37.01 -46.96,67.11 27.79,79.32 93.4,180.21 246.85,181.33 252.7,1.78 373.5,-299.43 373.5,-299.43 0,0 -143.5,-291.13 -395.37,-270.01z"/>
   <path class="fil2" d="M17128.96 11895.29c-43.73,147.55 33.78,240.12 101.57,289.98 25.83,19.05 62.84,6.61 78.25,-25.37l172.05 -405.86 -117.07 425.09c-7.79,34.61 13.48,67.26 45.46,68.39 84.32,3.08 202.6,-21.28 259.81,-164.24 94.13,-235.48 -143.14,-458.65 -143.14,-458.65 0,0 -324.58,27.56 -396.94,270.66z"/>
   <path class="fil2" d="M16583.65 10778.61c-99.52,157.8 -39.53,291.19 23.08,371.69 23.88,30.7 71.14,28.39 99.61,-3.82l334.25 -416.86 -276.44 457.29c-20.5,37.83 -6.43,82.91 30.57,94.82 97.27,31.31 243.32,41.86 357.1,-106.19 187.31,-243.71 -16.1,-582.09 -16.1,-582.09 0,0 -387.66,-74.6 -552.07,185.15z"/>
   <path class="fil2" d="M16989.44 9570.25c-142.6,120.2 -125.9,265.57 -90.55,361.29 13.4,36.48 59.17,48.6 96,26.44l444.88 -295.91 -402.04 352c-30.93,29.89 -31.23,77.15 0.47,99.61 83.2,59.32 219.21,113.62 372.45,7.05 252.4,-175.55 161.03,-559.63 161.03,-559.63 0,0 -346.84,-188.59 -582.24,9.15z"/>
   <path class="fil2" d="M17110.18 13670.3c-98.28,-158.55 -244.53,-163.12 -344.38,-142.08 -37.98,8.02 -56.63,51.53 -40.15,91.23l228.29 483.07 -290.01 -448.85c-25.01,-34.97 -71.67,-42.1 -98.55,-14.08 -70.78,73.78 -144.26,200.41 -61.04,367.58 137.05,275.1 530.33,240.56 530.33,240.56 0,0 236.89,-315.9 75.5,-577.44z"/>
   <path class="fil2" d="M18502.32 11917.99c-155.94,145.36 -128.44,310.21 -82.69,417.47 17.45,40.81 70.34,52.03 111.16,24.71l490.62 -363.25 -438.59 424.82c-33.55,35.8 -31.14,89.72 6.21,113.6 98.42,62.93 256.68,117.07 425.5,-13.39 277.86,-214.72 151.64,-647.77 151.64,-647.77 0,0 -406.6,-195.32 -663.87,43.82z"/>
   <path class="fil1" d="M12859.85 15824.29c0,140.8 -114.13,255.01 -254.93,255.01 -140.88,0 -255.01,-114.22 -255.01,-255.01 0,-140.88 114.13,-255.02 255.01,-255.02 140.8,0 254.93,114.14 254.93,255.02z"/>
   <path class="fil1" d="M13027.17 16349.53c-135.7,-199.44 -365.86,-287.23 -586.95,-206.85 -108.38,39.39 -200.12,121.77 -269.39,224.15 -169.2,250.16 -379.87,595.21 -310,678.41 53.78,64.12 300.65,-241.98 369.53,-329.91 6.16,-7.79 17.54,-2.4 17.75,8.38 4.2,199.46 30.27,1189.87 145.3,1267.76l10.43 -0.9c14.97,-14.61 57.36,-83.51 68.98,-412.91 1.18,-33.71 8.68,-67.26 23.74,-97.29 20.38,-40.6 55.49,-87.56 108.38,-87.56 51.53,0 86.2,44.8 106.79,84.64 16.27,31.53 24.05,66.88 25.32,102.37 11.68,325.65 53.4,395.37 68.6,410.42l10.72 1.21c115.03,-78.13 141.1,-1068.3 145.31,-1267.76 0.21,-10.78 11.59,-16.18 17.74,-8.38 68.9,87.94 329.46,321.15 383.23,257.12 71.46,-85.09 -164.62,-371.84 -335.46,-622.91z"/>
   <path class="fil1" d="M14380.08 15622.01c0,145.6 -118.03,263.61 -263.63,263.61 -145.6,0 -263.61,-118.02 -263.61,-263.61 0,-145.6 118.02,-263.64 263.61,-263.64 145.6,0 263.63,118.04 263.63,263.64z"/>
   <path class="fil1" d="M14553.03 16232.63c-140.29,-213.62 -378.24,-307.61 -606.81,-221.56 -112.05,42.25 -206.95,130.48 -278.54,240.12 -174.88,267.98 -392.67,637.58 -320.48,726.71 55.65,68.62 310.81,-259.29 382.04,-353.42 6.36,-8.39 18.11,-2.55 18.34,8.98 4.42,213.6 31.32,1274.42 150.25,1357.92l10.79 -0.95c15.49,-15.67 59.31,-89.51 71.28,-442.27 1.21,-36.09 8.92,-72.06 24.57,-104.26 21.06,-43.44 57.3,-93.69 111.97,-93.69 53.32,0 89.21,47.94 110.48,90.55 16.77,33.78 24.87,71.67 26.14,109.71 12.05,348.79 55.28,423.46 70.92,439.63l11.09 1.27c118.93,-83.73 145.82,-1144.32 150.25,-1357.92 0.21,-11.53 11.97,-17.37 18.34,-8.98 71.23,94.13 340.62,442.93 396.2,374.33 73.92,-91.17 -170.24,-497.23 -346.84,-766.17z"/>
   <path class="fil1" d="M15836.73 16280.33c0,115.35 -93.48,208.74 -208.73,208.74 -115.26,0 -208.66,-93.4 -208.66,-208.74 0,-115.25 93.4,-208.66 208.66,-208.66 115.25,0 208.73,93.41 208.73,208.66z"/>
   <path class="fil1" d="M17403.23 15750.9c0,145.6 -118.03,263.63 -263.63,263.63 -145.6,0 -263.64,-118.03 -263.64,-263.63 0,-145.6 118.04,-263.64 263.64,-263.64 145.6,0 263.63,118.04 263.63,263.64z"/>
   <path class="fil1" d="M17576.18 16293.88c-140.29,-206.19 -378.24,-296.95 -606.82,-213.83 -112.03,40.76 -206.94,125.92 -278.52,231.72 -174.9,258.63 -392.67,615.43 -320.49,701.4 55.64,66.22 310.83,-250.22 382.06,-341.06 6.35,-8.09 18.11,-2.48 18.35,8.68 4.33,206.19 31.29,1230.08 150.24,1310.67l10.79 -0.97c15.49,-15.05 59.23,-86.35 71.29,-426.9 1.18,-34.84 8.91,-69.51 24.56,-100.59 21.04,-41.95 57.3,-90.48 111.97,-90.48 53.32,0 89.21,46.3 110.4,87.49 16.85,32.57 24.95,69.19 26.22,105.89 12.06,336.65 55.26,408.71 70.92,424.29l11.09 1.18c118.93,-80.74 145.81,-1104.48 150.22,-1310.58 0.24,-11.17 12,-16.77 18.36,-8.68 71.14,90.84 326.39,407.28 381.95,341.06 73.93,-88 -156,-459.78 -332.59,-719.29z"/>
   <path class="fil1" d="M18721.46 16049.65c0,126.21 -102.3,228.49 -228.49,228.49 -126.2,0 -228.5,-102.29 -228.5,-228.49 0,-126.2 102.3,-228.5 228.5,-228.5 126.19,0 228.49,102.3 228.49,228.5z"/>
   <path class="fil1" d="M18792.48 16445.78c-104.56,-116.62 -261.83,-165 -411.33,-120.83 -75.11,22.25 -142.3,69.9 -197.12,131.46 -144.86,162.43 -404.36,432.5 -301.83,555.57 41.8,50.1 262.43,-259.66 322.57,-324.08 5.24,-5.63 13.62,-1.71 13.11,5.99 -9.97,150.78 -73.18,1186.65 43.74,1296.97l11.46 -1.35c17.36,-21.04 66.94,-117.96 92.77,-527.1 2.33,-37.54 10.58,-74.08 25.77,-106.37 19.92,-42.55 53.1,-90.69 101.34,-90.69 47.11,0 79.75,45.84 99.91,87.64 16.26,33.69 24.86,72.33 27.4,111.88 25.69,404.58 74.66,502.47 92.29,524.28l11.82 1.64c116.83,-110.55 53.63,-1146.11 43.67,-1296.89 -0.53,-7.7 7.86,-11.61 13.11,-5.99 60.15,64.42 296.49,311.41 331.93,256.59 45.3,-70.17 -175.55,-336.88 -320.62,-498.72z"/>
   <path class="fil1" d="M15987.78 17151.9l-8.44 0c-26.07,0 -47.2,-18.66 -47.2,-41.72l0 -36.47c0,-23.02 21.13,-41.65 47.2,-41.65 26.04,0 47.11,-18.73 47.11,-41.72l0 -380.46c0,-23 -21.07,-41.72 -47.11,-41.72l-703.57 0c-25.98,0 -47.11,18.72 -47.11,41.72l0 380.46c0,22.99 21.13,41.72 47.11,41.72 26.05,0 47.17,18.64 47.17,41.65l0 36.47c0,23.06 -21.12,41.72 -47.17,41.72l-8.47 0c-22.46,0 -41.86,14.07 -46.2,33.54l-65.77 291.88c-5.75,25.75 16.56,49.87 46.29,49.87l851.86 0c29.74,0 52.05,-24.12 46.28,-49.87l-65.75 -291.88c-4.35,-19.47 -23.74,-33.54 -46.22,-33.54z"/>
   <polygon class="fil1" points="15155.32,17483.89 16100.66,17483.89 16100.66,17617.52 15155.32,17617.52 "/>
   <path class="fil1" d="M15122.44 17198.98l-47.17 0c-8.69,0 -15.74,177.74 -15.74,396.96 0,219.22 7.05,396.94 15.74,396.94l47.17 0c8.7,0 15.73,-177.71 15.73,-396.94 0,-219.22 -7.03,-396.96 -15.73,-396.96z"/>
   <path class="fil1" d="M16180.81 17198.98l-47.2 0c-8.68,0 -15.73,177.74 -15.73,396.96 0,219.22 7.05,396.94 15.73,396.94l47.2 0c8.59,0 15.64,-177.71 15.64,-396.94 0,-219.22 -7.05,-396.96 -15.64,-396.96z"/>
   <path class="fil1" d="M15915.36 16730.45c-74.96,-89.8 -178.78,-141.03 -287.45,-140.58l0 955.36c38.66,0 64.71,33.27 79.99,62.93 12.15,23.81 17.9,49.87 18.81,76.38 8.54,242.96 39.98,295.1 51.23,306.33l8.09 0.9c85.81,-58.42 105.15,-797.34 108.29,-946l2.85 -43.52c143.58,18.64 490.86,57.66 502.39,-1.72 14.54,-74.9 -484.2,-270.07 -484.2,-270.07z"/>
   <path class="fil1" d="M15340.09 16730.45c0,0 -498.73,195.17 -484.2,270.07 11.53,59.38 358.83,20.36 502.39,1.72l2.93 43.52c3.14,148.65 22.46,887.57 108.23,946l8.09 -0.9c11.23,-11.23 42.67,-63.37 51.23,-306.33 0.9,-26.52 6.73,-52.57 18.87,-76.38 15.2,-29.66 41.26,-62.93 79.91,-62.93l0 -955.36c-108.68,-0.45 -212.49,50.79 -287.45,140.58z"/>
  </g>
 </g>
</svg>
