<?xml version="1.0" encoding="UTF-8"?>
<!DOCTYPE svg PUBLIC "-//W3C//DTD SVG 1.1//EN" "http://www.w3.org/Graphics/SVG/1.1/DTD/svg11.dtd">
<!-- Creator: CorelDRAW 2023 -->
<svg xmlns="http://www.w3.org/2000/svg" xml:space="preserve" width="358.25mm" height="358.25mm" version="1.1" style="shape-rendering:geometricPrecision; text-rendering:geometricPrecision; image-rendering:optimizeQuality; fill-rule:evenodd; clip-rule:evenodd"
viewBox="0 0 31446.29 31446.29"
 xmlns:xlink="http://www.w3.org/1999/xlink"
 xmlns:xodm="http://www.corel.com/coreldraw/odm/2003">
 <defs>
  <style type="text/css">
   <![CDATA[
    .fil0 {fill:none}
    .fil1 {fill:#95683B;fill-rule:nonzero}
    .fil2 {fill:#567C39;fill-rule:nonzero}
    .fil3 {fill:#354066;fill-rule:nonzero}
   ]]>
  </style>
 </defs>
 <g id="Layer_x0020_1">
  <metadata id="CorelCorpID_0Corel-Layer"/>
  <rect class="fil0" width="31446.29" height="31446.29"/>
  <g id="_105553283475296">
   <path class="fil1" d="M15676.27 11237.2l94.98 0 38.72 1951.26c80.07,-227.01 362.16,-518.2 654.99,-773.96 50.45,-91.45 105.71,-213.58 112.34,-321.8 12.44,-204.43 107.17,-463.54 107.17,-463.54l42.89 18.01c0,0 -80.72,186.42 -84.06,338.35 -1.64,105.53 -25.63,223.5 -63.52,330.9 336.53,-281.45 652.53,-498.31 652.53,-498.31l34.72 49.45c0,0 -746.62,534.51 -1138.59,1058.52 -391.9,523.95 -293.83,1247.4 -293.83,1247.4 129.52,-343.1 530.58,-565.95 777.24,-683.91 247.49,-117.96 351.61,-249.19 351.61,-249.19l31.27 31.5c-132.87,183.96 -531.23,377.83 -800.24,584.78 -268.2,206.3 -312.72,557.91 -312.72,557.91 -127.06,875.32 48.63,1888.49 48.63,1888.49 227.66,-422.53 919.02,-755.07 1260.66,-978.56 341.69,-223.5 497.5,-775.66 497.5,-775.66l42.23 0c-22.35,125.42 -60.42,245.85 -112.39,360.7 245.02,-137.79 667.61,-108.23 1056.88,-101.6 245.2,5.81 375.36,-89.81 375.36,-89.81l21.52 15.55c-153.98,131.81 -359.88,123.3 -626.42,114.86 -70.34,-2.29 -145.07,-4.58 -224.08,-4.17 -303.57,1.64 -553.81,130.4 -678.99,209.42 -109.05,185.66 -259.09,350.79 -449.68,481.95 196.39,8.09 380.35,37.07 651.65,113.03 198.03,54.38 1116.48,-13.25 1116.48,-13.25l0 42c0,0 -914.27,107.4 -1202.12,25.63 -111.33,-31.2 -253.29,-51.1 -385.33,-63.52 -178.14,-17.36 -356.53,12.43 -523.13,79.31l-2.46 0.82c-556.1,220.15 -783.93,1016.46 -783.93,1016.46 -20.47,788.62 48.87,1630.26 138.67,2357 -80.72,-124.53 -221.85,-206.89 -381.17,-206.89 -155.03,0 -292.83,78.19 -375.42,196.98 89.23,-724.27 157.74,-1562.58 137.03,-2347.09 0,0 -227.65,-796.31 -784.51,-1016.46l-1.64 -0.82c-166.83,-66.88 -344.98,-96.67 -523.19,-79.31 -131.98,12.43 -274.76,32.32 -386.1,63.52 -287.84,81.77 -1201.3,-25.63 -1201.3,-25.63l0 -42c0,0 918.38,67.63 1116.24,13.25 270.65,-75.96 454.62,-104.94 651.83,-113.03 -190.58,-131.17 -340.81,-296.29 -450.51,-481.95 -125.41,-79.02 -374.54,-207.78 -678.92,-209.42 -79.08,-0.41 -153.8,1.88 -224.32,4.17 -266.38,8.44 -472.27,16.95 -625.61,-114.86l21.53 -15.55c0,0 130.34,95.62 375.36,89.81 388.62,-6.63 811.84,-36.19 1056.05,101.6 -51.97,-114.86 -88.99,-235.29 -112.16,-360.7l42 0c0,0 156.03,552.16 498.31,775.66 340.81,223.49 1033,556.04 1260.84,978.56 0,0 174.86,-1013.17 48.63,-1888.49 0,0 -44.46,-351.61 -313.48,-557.91 -269.01,-206.95 -667.6,-400.83 -800.47,-584.78l32.32 -31.5c0,0 103.89,131.23 350.73,249.19 246.66,117.96 648.36,340.81 777.88,683.91 0,0 98.31,-723.44 -293.65,-1247.4 -392.79,-524.01 -1139.4,-1058.52 -1139.4,-1058.52l35.43 -49.45c0,0 315.12,216.86 651.83,498.31 -37.89,-107.4 -61.88,-225.37 -63.52,-330.9 -3.29,-151.93 -83.41,-338.35 -83.41,-338.35l42.23 -18.01c0,0 94.8,259.1 107.18,463.54 6.63,108.22 61.88,230.35 113.04,321.8 291.95,255.76 575.04,546.95 655.11,773.96l38.71 -1951.26z"/>
   <path class="fil2" d="M14978.7 14388.87c90.63,93.57 68.69,193.52 37.48,257.46 -12.03,24.4 -44.52,29.62 -68.75,11.61l-288.25 -237.16 254.52 273.12c19.48,23 16.37,55.91 -7.22,69.34 -62.12,35.2 -160.37,63.35 -259.51,-21.53 -163.07,-139.84 -72.21,-400.41 -72.21,-400.41 0,0 254.29,-106.59 403.93,47.57z"/>
   <path class="fil2" d="M14983.45 11206.58c-5.99,130.17 -93.5,182.73 -161.61,204.07 -25.87,7.86 -52.15,-12.2 -55.67,-42l-25.22 -372.48 -24.05 372.48c-3.29,29.98 -29.39,50.27 -55.44,42.18 -68.27,-20.88 -156.27,-73.03 -162.25,-203.43 -10.32,-214.34 241.5,-327.37 241.5,-327.37 0,0 252.06,111.98 242.73,326.56z"/>
   <path class="fil2" d="M15428.14 11886.8c-54.2,118.61 -154.98,134.51 -226.19,128.7 -26.86,-2.05 -43.63,-30.62 -35.78,-59.6l115.67 -354.88 -161.37 336.71c-14.31,26.28 -46.16,35.37 -67.28,18.42 -55.43,-44.93 -117.55,-126.23 -74.5,-249.6 70.8,-202.56 346.44,-213.34 346.44,-213.34 0,0 192,198.03 103.01,393.6z"/>
   <path class="fil2" d="M16167.97 10732.49c-10.74,239.04 -171.76,335.65 -296.94,374.55 -47.63,14.9 -95.62,-22.11 -102.01,-76.96l-46.57 -684.15 -43.88 684.38c-6.21,54.84 -54.2,92.1 -101.83,77.37 -125.42,-38.3 -287.02,-134.26 -298.17,-373.54 -18.83,-393.96 443.47,-601.33 443.47,-601.33 0,0 463.12,205.49 445.94,599.68z"/>
   <path class="fil2" d="M13506.92 13123.06c53.61,92.91 16.19,168.06 -21.71,212.93 -14.48,16.96 -41.59,14.73 -57.13,-4.51l-182.31 -247.14 148.18 269.01c10.97,22.17 1.7,47.81 -19.83,53.85 -56.48,15.72 -140.55,18.42 -202.61,-69.34 -102.01,-144.24 22.76,-334.01 22.76,-334.01 0,0 224.32,-33.72 312.65,119.2z"/>
   <path class="fil2" d="M13185.18 12046.59c115.67,121.84 86.29,250.18 45.11,332.54 -15.72,31.2 -57.96,37.42 -88.81,14.08l-368.74 -309.37 324.92 355.3c24.58,29.8 20.24,71.98 -10.38,89.16 -80.48,44.7 -207.53,79.9 -334.19,-31.03 -208.41,-182.31 -88.39,-517.15 -88.39,-517.15 0,0 329.49,-134.09 520.49,66.47z"/>
   <path class="fil2" d="M13016.7 16055.39c74.73,-77.02 157.26,-61.47 210.88,-37.48 20.3,9.33 25.46,36.02 11.38,56.31l-187.71 243.15 218.15 -216.46c18.19,-16.54 45.28,-14.72 57.08,4.34 30.62,50.09 56.31,130.17 -11.15,213.76 -110.75,137.61 -327.21,69.92 -327.21,69.92 0,0 -94.14,-206.49 28.57,-333.55z"/>
   <path class="fil2" d="M11381.27 14981.39c106.99,5.16 150.23,77.14 167.42,133.22 6.63,21.35 -9.92,42.88 -34.56,45.75l-306.49 20.3 306.49 20.23c24.64,2.7 41.42,24.23 34.79,45.58 -17.42,56.26 -60.42,128.46 -167.65,133.21 -176.51,8.1 -269.01,-199.03 -269.01,-199.03 0,0 92.5,-207.37 269.01,-199.27z"/>
   <path class="fil2" d="M11609.34 13369.13c84.82,65.35 78.83,149.41 61.01,205.25 -7.04,21.12 -32.86,29.21 -54.62,17.6l-262.8 -159.14 239.62 192.22 2.05 57.37c-46.1,35.95 -122.89,70.56 -213.52,13.02 -149.41,-94.38 -106.41,-317.23 -106.41,-317.23 0,0 194.51,-116.91 334.66,-9.09z"/>
   <path class="fil2" d="M12609.25 13014.41c123.95,175.51 62.88,332.78 -4.34,429.21 -25.46,36.84 -80.07,37.02 -114.68,1.64l-409.91 -459.59 345.8 509.69c25.87,42.18 12.43,94.98 -29.39,110.87 -110.28,41.83 -277.53,62.71 -417.43,-100.78 -230.3,-269.01 -16.72,-670.89 -16.72,-670.89 0,0 441.59,-109.22 646.67,179.85z"/>
   <path class="fil2" d="M12246.09 15305.02c182.09,15.55 250.77,141.31 276.64,237.98 9.97,36.6 -19.83,72.21 -61.82,75.32l-523.19 14.49 520.49 54.61c41.76,6.45 68.69,44.12 56.08,79.9 -33.14,94.56 -111.34,214.81 -294.06,216.05 -301.1,2.28 -445.17,-356.77 -445.17,-356.77 0,0 171.17,-346.79 471.04,-321.57z"/>
   <path class="fil2" d="M13936.55 14048.7c51.97,175.69 -40.36,285.97 -121.26,345.39 -30.62,22.76 -74.73,7.86 -93.15,-30.2l-204.84 -483.42 139.49 506.35c9.27,41.18 -16.19,80.07 -54.26,81.54 -100.54,3.52 -241.5,-25.46 -309.55,-195.75 -112.16,-280.62 170.53,-546.53 170.53,-546.53 0,0 386.74,32.91 473.03,322.63z"/>
   <path class="fil2" d="M14586.15 12718.07c118.55,188.12 47.16,347.03 -27.52,443.06 -28.39,36.43 -84.64,33.72 -118.6,-4.52l-398.36 -496.67 329.44 544.9c24.45,44.87 7.68,98.66 -36.37,112.74 -115.91,37.48 -289.96,49.86 -425.52,-126.42 -223.25,-290.36 19.07,-693.47 19.07,-693.47 0,0 462.12,-88.99 657.87,220.38z"/>
   <path class="fil2" d="M14102.73 11278.61c169.88,143.19 150.05,316.41 107.82,430.44 -15.96,43.24 -70.57,57.72 -114.44,31.44l-529.99 -352.6 478.9 419.42c37.02,35.6 37.25,91.92 -0.41,118.79 -99.14,70.56 -261.15,135.15 -443.7,8.33 -300.69,-209.24 -192.06,-666.79 -192.06,-666.79 0,0 413.49,-224.72 693.89,10.97z"/>
   <path class="fil2" d="M13958.9 16163.39c116.9,-188.94 291.18,-194.28 410.15,-169.29 45.34,9.56 67.46,61.47 47.8,108.69l-271.89 575.69 345.57 -534.92c29.8,-41.64 85.47,-50.09 117.31,-16.6 84.48,87.76 171.75,238.63 72.63,437.72 -163.02,327.97 -631.77,286.61 -631.77,286.61 0,0 -282.27,-376.24 -89.81,-687.9z"/>
   <path class="fil2" d="M12300.05 14075.57c185.83,173.22 153.16,369.85 98.55,497.49 -20.71,48.63 -83.64,61.89 -132.27,29.39l-584.61 -432.67 522.54 505.94c39.95,42.83 37.08,107 -7.44,135.56 -117.15,74.91 -305.85,139.43 -506.77,-15.96 -331.13,-255.99 -180.91,-771.9 -180.91,-771.9 0,0 484.48,-232.58 790.91,52.15z"/>
   <path class="fil2" d="M16467.6 14388.87c-90.63,93.57 -68.69,193.52 -37.42,257.46 11.79,24.4 44.46,29.62 68.69,11.61l288.25 -237.16 -254.52 273.12c-19.48,23 -16.37,55.91 7.27,69.34 62.07,35.2 160.38,63.35 259.45,-21.53 162.9,-139.84 72.27,-400.41 72.27,-400.41 0,0 -254.34,-106.59 -403.99,47.57z"/>
   <path class="fil2" d="M16462.85 11206.58c6.04,130.17 93.56,182.73 161.61,204.07 25.87,7.86 52.15,-12.2 55.67,-42l25.28 -372.48 23.99 372.48c3.29,29.98 29.39,50.27 55.26,42.18 68.27,-20.88 156.45,-73.03 162.42,-203.43 10.15,-214.34 -241.5,-327.37 -241.5,-327.37 0,0 -252.06,111.98 -242.73,326.56z"/>
   <path class="fil2" d="M16018.15 11886.8c54.03,118.61 154.98,134.51 226.19,128.7 26.92,-2.05 43.63,-30.62 35.78,-59.6l-115.67 -354.88 161.43 336.71c14.25,26.28 46.16,35.37 67.22,18.42 55.49,-44.93 117.55,-126.23 74.5,-249.6 -70.74,-202.56 -346.39,-213.34 -346.39,-213.34 0,0 -192.05,198.03 -103.06,393.6z"/>
   <path class="fil2" d="M17939.37 13123.06c-53.61,92.91 -16.13,168.06 21.71,212.93 14.48,16.96 41.59,14.73 57.13,-4.51l182.31 -247.14 -148.18 269.01c-10.97,22.17 -1.64,47.81 19.65,53.85 56.72,15.72 140.72,18.42 202.78,-69.34 102.07,-144.24 -22.76,-334.01 -22.76,-334.01 0,0 -224.32,-33.72 -312.65,119.2z"/>
   <path class="fil2" d="M18261.18 12046.59c-115.68,121.84 -86.29,250.18 -45.11,332.54 15.72,31.2 57.9,37.42 88.75,14.08l368.74 -309.37 -324.86 355.3c-24.81,29.8 -20.3,71.98 10.32,89.16 80.54,44.7 207.59,79.9 334.24,-31.03 208.36,-182.31 88.34,-517.15 88.34,-517.15 0,0 -329.43,-134.09 -520.42,66.47z"/>
   <path class="fil2" d="M18429.59 16055.39c-74.67,-77.02 -157.44,-61.47 -210.88,-37.48 -20.24,9.33 -25.4,36.02 -11.38,56.31l187.71 243.15 -218.1 -216.46c-18.24,-16.54 -45.34,-14.72 -57.13,4.34 -30.62,50.09 -56.25,130.17 11.21,213.76 110.69,137.61 327.15,69.92 327.15,69.92 0,0 94.14,-206.49 -28.57,-333.55z"/>
   <path class="fil2" d="M20065.02 14981.39c-107.17,5.16 -150.23,77.14 -167.59,133.22 -6.63,21.35 10.15,42.88 34.55,45.75l306.5 20.3 -306.5 20.23c-24.4,2.7 -41.18,24.23 -34.55,45.58 17.36,56.26 60.43,128.46 167.59,133.21 176.51,8.1 269.01,-199.03 269.01,-199.03 0,0 -92.5,-207.37 -269.01,-199.27z"/>
   <path class="fil2" d="M19837.01 13369.13c-84.88,65.35 -78.84,149.41 -61.07,205.25 6.8,21.12 32.91,29.21 54.62,17.6l262.85 -159.14 -239.68 192.22 -2.23 57.37c46.34,35.95 123.13,70.56 213.76,13.02 149.17,-94.38 106.35,-317.23 106.35,-317.23 0,0 -194.51,-116.91 -334.6,-9.09z"/>
   <path class="fil2" d="M18837.04 13014.41c-123.95,175.51 -63.12,332.78 4.16,429.21 25.64,36.84 80.31,37.02 114.86,1.64l409.91 -459.59 -345.74 509.69c-25.87,42.18 -12.44,94.98 29.33,110.87 110.11,41.83 277.53,62.71 417.43,-100.78 230.3,-269.01 16.77,-670.89 16.77,-670.89 0,0 -441.82,-109.22 -646.72,179.85z"/>
   <path class="fil2" d="M19200.26 15305.02c-182.14,15.55 -250.82,141.31 -276.69,237.98 -9.92,36.6 19.88,72.21 61.88,75.32l523.13 14.49 -520.66 54.61c-41.59,6.45 -68.52,44.12 -55.84,79.9 33.08,94.56 111.1,214.81 294.06,216.05 301.09,2.28 445.11,-356.77 445.11,-356.77 0,0 -171.17,-346.79 -470.99,-321.57z"/>
   <path class="fil2" d="M17509.74 14048.7c-51.91,175.69 40.36,285.97 121.08,345.39 30.85,22.76 74.91,7.86 93.32,-30.2l204.9 -483.42 -139.5 506.35c-9.32,41.18 16.13,80.07 54.2,81.54 100.36,3.52 241.5,-25.46 309.61,-195.75 112.15,-280.62 -170.53,-546.53 -170.53,-546.53 0,0 -386.8,32.91 -473.09,322.63z"/>
   <path class="fil2" d="M16860.21 12718.07c-118.61,188.12 -47.22,347.03 27.51,443.06 28.33,36.43 84.64,33.72 118.55,-4.52l398.36 -496.67 -329.44 544.9c-24.4,44.87 -7.68,98.66 36.43,112.74 115.86,37.48 289.9,49.86 425.47,-126.42 223.25,-290.36 -19.24,-693.47 -19.24,-693.47 0,0 -461.89,-88.99 -657.64,220.38z"/>
   <path class="fil2" d="M17343.56 11278.61c-169.88,143.19 -149.99,316.41 -107.82,430.44 15.96,43.24 70.4,57.72 114.44,31.44l529.99 -352.6 -479.07 419.42c-36.84,35.6 -37.02,91.92 0.64,118.79 99.14,70.56 261.16,135.15 443.64,8.33 300.69,-209.24 191.88,-666.79 191.88,-666.79 0,0 -413.27,-224.72 -693.71,10.97z"/>
   <path class="fil2" d="M17487.39 16163.39c-117.09,-188.94 -291.12,-194.28 -410.15,-169.29 -45.28,9.56 -67.46,61.47 -47.8,108.69l271.94 575.69 -345.62 -534.92c-29.8,-41.64 -85.47,-50.09 -117.49,-16.6 -84.24,87.76 -171.76,238.63 -72.45,437.72 163.08,327.97 631.77,286.61 631.77,286.61 0,0 282.27,-376.24 89.81,-687.9z"/>
   <path class="fil2" d="M19146 14075.57c-185.6,173.22 -152.93,369.85 -98.49,497.49 20.88,48.63 83.82,61.89 132.45,29.39l584.61 -432.67 -522.54 505.94c-39.95,42.83 -37.25,107 7.44,135.56 117.15,74.91 305.68,139.43 506.83,-15.96 331.07,-255.99 180.85,-771.9 180.85,-771.9 0,0 -484.65,-232.58 -791.15,52.15z"/>
   <path class="fil3" d="M12423.65 18729.64c0,167.82 -135.98,303.8 -303.8,303.8 -167.83,0 -304.03,-135.98 -304.03,-303.8 0,-167.83 136.2,-303.81 304.03,-303.81 167.82,0 303.8,135.98 303.8,303.81z"/>
   <path class="fil3" d="M12622.92 19355.41c-161.61,-237.57 -435.84,-342.04 -699.28,-246.43 -129.11,46.93 -238.57,145.07 -320.93,267.13 -201.55,298 -452.55,709.2 -369.38,808.27 64.11,76.38 358.18,-288.43 440.36,-393.14l21.11 10.16c4.93,237.51 36.02,1417.51 172.99,1510.43l12.44 -1.24c18,-17.19 68.46,-99.36 82.12,-491.92 1.47,-40.12 10.38,-80.07 28.33,-115.85 24.23,-48.22 66.05,-104.3 129.17,-104.3 61.47,0 102.66,53.38 127.23,100.78 19.24,37.66 28.56,79.66 30.2,122.07 13.9,388.03 63.53,470.98 81.77,488.98l12.61 1.47c137.2,-93.16 168.06,-1272.92 173.22,-1510.43l21.12 -10.16c82.12,104.71 392.55,382.64 456.67,306.44 85.06,-101.37 -196.17,-443.06 -399.77,-742.28z"/>
   <path class="fil3" d="M14234.77 18488.78c0,173.4 -140.55,314.12 -314.18,314.12 -173.4,0 -313.89,-140.72 -313.89,-314.12 0,-173.63 140.5,-314.12 313.89,-314.12 173.63,0 314.18,140.49 314.18,314.12z"/>
   <path class="fil3" d="M14440.84 19216.16c-167.17,-254.35 -450.68,-366.51 -723.04,-263.86 -133.45,50.28 -246.43,155.39 -331.72,285.97 -208.36,319.34 -467.87,759.71 -381.81,865.87 66.23,81.72 370.26,-308.96 455.08,-421.11l21.94 10.74c5.16,254.52 37.24,1518.52 179.02,1617.84l12.79 -1.24c18.42,-18.42 70.57,-106.58 84.88,-526.88 1.41,-43 10.74,-85.64 29.39,-124.13 24.99,-51.74 68.28,-111.75 133.22,-111.75 63.59,0 106.4,57.08 131.63,107.99 20.07,40.36 29.8,85.47 31.27,130.81 14.26,415.55 65.82,504.47 84.41,523.77l13.26 1.41c141.72,-99.72 173.81,-1363.32 178.97,-1617.84l21.94 -10.74c84.88,112.15 405.81,527.64 472.04,445.93 87.99,-108.46 -202.79,-592.29 -413.27,-912.8z"/>
   <path class="fil3" d="M15970.34 19273.06c0,137.44 -111.34,248.72 -248.72,248.72 -137.44,0 -248.77,-111.28 -248.77,-248.72 0,-137.38 111.33,-248.72 248.77,-248.72 137.38,0 248.72,111.34 248.72,248.72z"/>
   <path class="fil3" d="M17836.71 18642.29c0,173.46 -140.72,314.18 -314.12,314.18 -173.63,0 -314.12,-140.72 -314.12,-314.18 0,-173.57 140.49,-314.12 314.12,-314.12 173.4,0 314.12,140.55 314.12,314.12z"/>
   <path class="fil3" d="M18042.61 19289.19c-167.01,-245.61 -450.68,-353.84 -722.8,-254.7 -133.51,48.39 -246.66,149.99 -331.96,276.05 -208.36,308.08 -467.87,733.19 -381.81,835.61 66.22,79.02 370.25,-297.99 455.08,-406.45l21.94 10.56c5.16,245.67 37.24,1465.56 179.03,1561.35l12.79 -1c18.42,-18 70.56,-102.88 85.06,-508.7 1.23,-41.35 10.56,-82.77 29.21,-119.78 24.99,-49.86 68.27,-107.82 133.45,-107.82 63.52,0 106.18,55.26 131.63,104.3 19.83,38.66 29.56,82.36 31.03,126 14.49,401.28 65.82,487.16 84.65,505.58l13.02 1.41c141.73,-96.2 173.81,-1315.92 178.97,-1561.35l21.94 -10.56c84.88,108.47 388.85,485.47 455.08,406.45 88.16,-104.7 -185.83,-547.76 -396.31,-856.95z"/>
   <path class="fil3" d="M19407.16 18998.24c0,150.46 -121.84,272.36 -272.3,272.36 -150.22,0 -272.12,-121.9 -272.12,-272.36 0,-150.41 121.9,-272.29 272.12,-272.29 150.47,0 272.3,121.89 272.3,272.29z"/>
   <path class="fil3" d="M19491.8 19470.27c-124.54,-139.08 -312.07,-196.8 -489.98,-144.01 -89.64,26.46 -169.53,83.18 -234.87,156.62 -172.64,193.52 -481.78,515.27 -359.7,661.8 49.86,59.84 312.72,-309.37 384.28,-386.16l15.72 7.28c-11.96,179.62 -87.29,1413.82 52.15,1545.22l13.67 -1.7c20.71,-24.99 79.66,-140.49 110.51,-627.84 2.7,-44.7 12.61,-88.34 30.63,-126.82 23.81,-50.74 63.35,-108.05 120.83,-108.05 56.08,0 95.03,54.61 119.03,104.53 19.24,40.12 29.56,86.06 32.5,133.28 30.62,481.94 88.99,598.62 110.1,624.48l14.03 2.12c139.31,-131.87 64,-1365.6 51.97,-1545.22l15.72 -7.28c71.62,76.79 353.24,371.09 395.48,305.86 53.97,-83.59 -209.24,-401.47 -382.05,-594.11z"/>
   <path class="fil3" d="M16150.19 20311.45l-9.97 0c-31.04,0 -56.26,-22.35 -56.26,-49.62l0 -43.47c0,-27.51 25.22,-49.69 56.26,-49.69 31.08,0 56.07,-22.35 56.07,-49.62l0 -453.44c0,-27.28 -24.99,-49.63 -56.07,-49.63l-838.31 0c-31.03,0 -56.08,22.35 -56.08,49.63l0 453.44c0,27.27 25.05,49.62 56.08,49.62 31.09,0 56.31,22.18 56.31,49.69l0 43.47c0,27.27 -25.22,49.62 -56.31,49.62l-10.09 0c-26.75,0 -49.93,16.78 -55.09,39.95l-78.19 347.68c-7.04,30.85 19.65,59.36 55.03,59.36l1015.05 0c35.37,0 61.88,-28.51 55.02,-59.36l-78.19 -347.68c-5.4,-23.16 -28.4,-39.95 -55.26,-39.95z"/>
   <polygon class="fil3" points="15158.54,20706.94 16284.87,20706.94 16284.87,20866.26 15158.54,20866.26 "/>
   <path class="fil3" d="M15119.19 20367.59l-56.08 0c-10.32,0 -18.83,211.64 -18.83,472.8 0,261.38 8.51,473.09 18.83,473.09l56.08 0c10.38,0 18.83,-211.71 18.83,-473.09 0,-261.16 -8.44,-472.8 -18.83,-472.8z"/>
   <path class="fil3" d="M16380.07 20367.59l-56.07 0c-10.32,0 -18.83,211.64 -18.83,472.8 0,261.38 8.51,473.09 18.83,473.09l56.07 0c10.38,0 18.84,-211.71 18.84,-473.09 0,-261.16 -8.45,-472.8 -18.84,-472.8z"/>
   <path class="fil3" d="M16064.07 19809.44c-89.39,-107.17 -213.11,-168 -342.68,-167.59l0 1138.35c46.16,0 77.19,39.54 95.43,74.91 14.43,28.33 21.29,59.36 22.36,90.87 10.32,289.49 47.57,351.55 61.01,365.04l9.73 1c102.24,-69.52 125.18,-949.82 128.94,-1126.97l3.52 -51.91c170.93,22.35 584.77,68.69 598.44,-2.12 17.37,-89.16 -576.74,-321.57 -576.74,-321.57z"/>
   <path class="fil3" d="M15378.52 19809.44c0,0 -594.17,232.41 -576.74,321.57 13.67,70.8 427.51,24.46 598.44,2.12l3.52 51.91c3.76,177.15 26.69,1057.46 128.94,1126.97l9.73 -1c13.2,-13.49 50.68,-75.55 60.83,-365.04 1.24,-31.5 8.04,-62.53 22.53,-90.87 18.24,-35.37 49.27,-74.91 95.2,-74.91l0 -1138.35c-129.52,-0.4 -253.06,60.43 -342.45,167.59z"/>
   <path class="fil3" d="M7526.03 12939.68c-37.89,117.15 -92.5,219.8 -163.71,307.55 -71.16,87.94 -154.39,157.27 -249.37,208.36 -94.97,51.16 -197.62,81.55 -307.49,91.28 -110.11,9.73 -222.02,-3.93 -336.47,-40.77 -114.27,-37.02 -213.18,-91.68 -296.59,-163.89 -83.35,-72.21 -148.58,-157.27 -195.51,-254.94 -46.99,-97.67 -73.68,-202.61 -80.54,-315 -6.39,-112.16 9.33,-227.6 47.81,-346.39 40.76,-126 99.36,-234.05 176.33,-324.09 76.79,-89.99 169.47,-157.27 277.52,-201.55l114.04 240.68c-78.02,36.43 -143.25,84.06 -195.58,143.19 -52.38,59.19 -91.51,129.16 -117.55,209.65 -26.11,80.71 -36.6,158.5 -31.85,233.64 4.76,75.32 23.59,145.25 56.08,210.06 32.5,64.76 77.2,121.26 134.51,169.65 57.07,48.45 125.41,85.47 204.42,111.16 79.25,25.46 156.03,35.37 230.77,29.56 74.67,-5.75 144.24,-25.46 208.36,-58.95 64.35,-33.32 120.43,-79.25 168.24,-137.44 48.04,-58.14 84.88,-127.47 110.92,-208.12 26.11,-80.54 35.19,-160.2 27.51,-238.87 -7.86,-78.43 -33.5,-155.56 -76.96,-231.12l235.52 -127.87c60.18,98.9 95.55,207.36 105.94,325.67 10.32,118.2 -5.16,241.1 -46.35,368.56z"/>
   <path class="fil3" d="M7606.93 11676.74l-163.66 -187.89 436.43 -756.36 244.37 47.64 -517.14 896.61zm156.86 477.03l-1037.17 -1438.22 147.76 -256.17 1765.6 175.69 -157.09 272.13 -1575.43 -186.07 60.01 -104.06 951.1 1268.52 -154.8 268.2z"/>
   <path class="fil3" d="M9582.35 9578.42l-709.37 -91.27 215.63 -237.75 711.02 89.39 -217.28 239.62zm-935.15 175.05l-196.16 3.11 325.92 -359.47c88.98,-98.26 134.74,-191.17 137.61,-279.16 2.7,-87.94 -33.49,-165.95 -108.87,-234.23 -76.31,-69.34 -157.67,-97.67 -243.73,-85.47 -86.11,12.44 -173.63,67.69 -262.62,165.95l-325.73 359.47 -19.65 -198.68 693.24 628.48zm224.55 608.82l-1198.19 -1086.2 446.99 -492.91c96.03,-106.18 195.75,-181.5 298.81,-226.43 102.83,-44.87 205.07,-58.78 306.09,-41.99 101.19,16.95 195.75,65.17 283.5,144.82 87.93,79.72 144.83,168.71 170.94,267.19 26.04,98.5 21.7,200.91 -13.49,307.32 -35.14,106.35 -100.78,212.7 -196.98,318.64l-335.24 369.8 -10.97 -190.77 450.1 408.09 -201.55 222.44z"/>
   <path class="fil3" d="M9821.57 8118.67l648.95 -474.9 145.89 199.44 -648.72 474.97 -146.11 -199.51zm427.98 545.48l736.47 -538.67 148.59 203.25 -978.8 716 -954.86 -1305 952.75 -697.17 148.59 203.26 -710.2 519.78 657.46 898.55z"/>
   <path class="fil3" d="M12284.75 7330.64l0.41 -248.95 826.34 -282.27 152.7 197.03 -979.45 334.19zm-196.16 462.53l166.18 -1765.42 279.75 -95.62 1213.5 1294.45 -297.35 101.59 -1063.44 -1177.3 113.57 -38.72 -119.2 1581.06 -293 99.96z"/>
   <polygon class="fil3" points="14357.66,7152.08 14168.31,5802.37 13637.5,5876.88 13602.13,5625.04 14961.1,5434.46 14996.3,5686.11 14465.72,5760.61 14655.07,7110.43 "/>
   <polygon class="fil3" points="16400.78,7042.8 16657.19,5446.25 16901.16,5485.38 17705.08,6875.56 17584.25,6856.32 17781.7,5626.92 18075.93,5674.08 17819.53,7270.62 17575.38,7231.5 16771.63,5841.33 16892.47,5860.57 16695.02,7089.96 "/>
   <path class="fil3" d="M19481.48 7643.53l228.65 -560.38 263.21 107.4 -243.56 596.81 -248.3 -143.83zm-415.55 94.97c-116.91,-47.8 -216.46,-110.51 -298.58,-188.06 -82.36,-77.6 -145.71,-165.77 -190.18,-264.67 -44.52,-98.96 -67.52,-203.43 -69.16,-313.95 -1.4,-110.51 20.53,-221.2 65.82,-332.36 45.52,-111.34 107.18,-205.9 185.66,-283.68 78.19,-77.84 168.23,-136.21 270.01,-175.51 101.59,-39.12 209.41,-57.55 323.28,-55.26 113.57,2.52 229.06,27.51 345.97,75.31 126.88,51.74 233,119.03 318.05,201.97 85.06,83 146.12,178.79 183.54,287.02l-245.43 99.55c-34.55,-82.36 -80.07,-151.22 -136.32,-206.72 -56.49,-55.26 -125.24,-99.72 -206.36,-132.87 -78.6,-32.08 -156.45,-48.8 -234,-50.51 -77.43,-1.64 -150.06,11.21 -217.74,38.31 -67.64,27.33 -127.88,67.69 -180.44,121.07 -52.55,53.39 -94.55,118.55 -126,195.58 -30.85,75.73 -46.17,150.81 -45.93,225.72 0.18,74.91 14.67,146.36 43.82,213.82 28.8,67.63 70.98,127.47 126.06,180.02 55.26,52.32 122.48,94.98 202.62,127.47 74.02,30.21 150.4,47.8 229.24,52.32 78.84,4.81 160.79,-7.86 246.25,-37.83l73.68 272.12c-104.06,30.62 -214.41,40.95 -330.9,30.8 -116.26,-10.09 -227.42,-36.61 -332.95,-79.67z"/>
   <path class="fil3" d="M20691.04 8636.81c-181.5,-127.46 -287.85,-278.28 -318.94,-452.55 -31.03,-174.22 21.36,-357.77 156.68,-550.64l524.36 -746.69 245.67 172.64 -517.79 737.12c-95.38,136.14 -135.5,255.76 -120.43,358.58 15.31,103.07 76.55,192.06 183.55,267.2 107.23,75.31 211.53,102.42 312.72,81.3 101.36,-21.12 199.91,-99.55 295.47,-235.7l517.79 -737.35 241.91 169.94 -524.36 746.79c-135.39,192.87 -290.37,304.21 -464.59,334.25 -174.45,29.98 -351.84,-18.42 -532.04,-144.89z"/>
   <path class="fil3" d="M22418.75 10187.84l157.26 -697.59 216.69 236.93 -155.62 699.45 -218.33 -238.8zm-86.71 -947.36l15.32 -195.57 327.37 358.23c89.4,97.67 177.57,152.11 264.91,163.07 87.29,10.97 168.41,-18 243.32,-86.52 76.2,-69.51 112.15,-147.76 107.82,-234.64 -4.11,-86.93 -51.1,-179.26 -140.49,-276.93l-327.38 -358 199.68 -0.83 -690.55 631.18zm-627.25 166.59l1193.44 -1091.19 449.03 491.04c96.68,105.77 162.49,211.94 197.46,318.7 34.95,106.59 39.53,209.65 13.25,308.72 -26.28,99.14 -83.24,188.77 -170.76,268.61 -87.51,80.13 -181.49,128.52 -282.04,145.3 -100.36,16.77 -201.96,2.7 -304.61,-42.23 -102.66,-44.88 -202.38,-120.19 -299.05,-225.96l-336.64 -368.16 190.99 6.81 -448.22 409.97 -202.85 -221.62z"/>
   <path class="fil3" d="M23547.01 10772.03l55.84 -187.89 245.26 418.59c66.82,114.27 141.72,186.07 224.73,215.05 83.18,28.98 168.41,17.77 256.16,-33.55 88.99,-52.15 140.5,-121.26 154.57,-206.9 14.08,-85.87 -12.6,-186.06 -79.42,-300.28l-245.02 -418.65 195.16 41 -807.28 472.63zm-113.62 944.65l299.87 -649.36 162.2 277.1 -298.58 651.24 -163.49 -278.98zm-534.51 -912.98l1395.34 -817.18 336.3 574.04c72.21,123.71 114.44,241.27 126.23,353.01 12.03,111.75 -5.4,213.34 -51.74,304.8 -46.34,91.27 -120.67,167.01 -223.09,227.01 -102.24,59.84 -204.42,87.58 -306.03,82.77 -101.83,-4.52 -198.27,-39.72 -289.13,-105.12 -91.04,-65.35 -172.75,-159.73 -245.02,-283.5l-252.24 -430.62 185.42 46.75 -524.36 307.14 -151.7 -259.1z"/>
   <path class="fil3" d="M24163.47 12404.18l249.12 3.93 270.31 830.21 -199.1 149.82 -320.34 -983.96zm-459.6 -202.84l1762.91 191.47 91.68 281.21 -1311.81 1194.67 -97.26 -298.81 1192.38 -1046.49 37.24 114.21 -1579.35 -141.78 -95.79 -294.48z"/>
   <path class="fil2" d="M6557.56 18145.86l116.67 410.97 -69.92 19.89 -116.74 -411.21 69.98 -19.64zm-356.36 110.75l132.86 467.86 -71.21 20.07 -156.21 -550.05 777.88 -220.8 151.46 533.27 -71.21 20.29 -128.05 -451.15 -635.52 180.5z"/>
   <polygon class="fil2" points="6421.35,19213.05 7165.51,18897.05 7193.02,18961.81 6757.24,19548.52 6742.75,19514.56 7466.44,19605.02 7493.95,19669.96 6749.55,19985.95 6717.71,19910.46 7343.89,19644.49 7351.58,19662.5 6688.13,19577.91 6672.18,19540.67 7070.95,19002.4 7079.63,19022.64 6453.44,19288.61 "/>
   <path class="fil2" d="M7301.72 20410.82l16.55 -53.79 127.65 218.28c41,69.74 87.16,113.86 138.43,132.45 51.56,18.42 104.76,11.61 159.97,-20.71 55.91,-32.67 88.4,-75.9 97.72,-130.17 9.51,-53.97 -6.21,-116.09 -46.98,-185.83l-127.88 -218.28 54.2 12.39 -419.66 245.66zm-292.41 71.98l697.75 -408.27 152.75 261.15c34.79,59.19 55.03,115.51 60.83,169.3 5.99,53.61 -2.05,102.24 -24.23,145.89 -22.11,43.88 -58.3,80.48 -109.05,110.11 -49.04,28.74 -98.08,41.99 -147.12,39.95 -49.04,-2.12 -95.62,-18.84 -139.67,-50.1 -44.29,-31.27 -83.65,-76.38 -118.2,-135.74l-128.87 -220.21 53.97 12.44 -255.11 149.41 -43.05 -73.91z"/>
   <path class="fil2" d="M7868.31 21673.77c29.39,38.72 63.12,69.51 101.19,92.27 38.07,22.76 78.43,37.08 121.02,43.05 42.64,5.81 85.06,3.29 127.52,-7.68 42.41,-10.91 82.95,-31.2 121.66,-60.42 38.72,-29.39 68.92,-62.88 91.04,-100.95 21.94,-37.89 35.78,-78.02 41.59,-120.67 5.8,-42.64 2.93,-85.47 -8.68,-128.29 -11.79,-42.82 -32.27,-83.59 -61.65,-122.07 -29.21,-38.72 -63.11,-69.57 -101.42,-92.74 -38.31,-23.17 -78.84,-37.67 -121.48,-43.47 -42.59,-5.81 -85.23,-3.52 -127.88,7.27 -42.64,10.56 -83.41,30.63 -122.07,59.78 -37.89,28.98 -68.1,62.53 -90.04,101.01 -22.11,38.48 -36.02,79.02 -41.76,121.66 -6.04,42.64 -2.93,85.47 9.09,128.52 11.96,43.23 32.5,84.23 61.88,122.71zm-60.65 46.17c-36.83,-48.45 -62.94,-99.55 -78.02,-153.4 -15.13,-53.79 -19.47,-106.94 -12.61,-159.97 6.64,-52.96 23.35,-102.83 50.28,-149.82 26.68,-46.75 63.76,-88.1 110.92,-123.94 47.16,-36.02 97.02,-60.43 149.41,-73.68 52.32,-13.02 104.94,-15.72 157.67,-7.86 52.8,7.68 103.07,26.1 150.46,54.84 47.4,28.8 89.81,67.69 127.06,116.74 36.6,48.39 62.47,99.31 77.38,152.69 14.9,53.61 19.24,106.59 12.84,159.38 -6.39,52.74 -23.16,102.59 -50.27,149.82 -26.92,46.99 -64.17,88.58 -111.34,124.35 -47.22,35.79 -97.26,60.43 -150.05,73.86 -52.56,13.25 -105.12,15.96 -157.68,8.09 -52.38,-8.09 -102.42,-26.51 -149.81,-55.26 -47.4,-28.74 -89.64,-67.46 -126.24,-115.85z"/>
   <polygon class="fil2" points="8504.83,22540.23 8880.6,21774.14 8942.9,21836.02 8588.24,22556.36 8556.98,22525.33 9280.02,22170.21 9335.92,22225.46 8984.31,22949.15 8954.93,22919.76 9673.81,22560.7 9731.99,22618.25 8969.18,23000.42 8905.24,22937.12 9237.2,22249.69 9253.56,22265.82 8567.95,22602.94 "/>
   <path class="fil2" d="M9850.37 23162.9l340.16 258.64 -44.06 57.95 -340.23 -258.63 44.12 -57.96zm-218.57 302.51l387.21 294.3 -44.71 58.95 -455.08 -346.21 489.4 -643.55 441.24 335.64 -44.7 58.78 -373.37 -283.74 -400 525.82z"/>
   <path class="fil2" d="M10852.33 24374.7l-27.33 -358.41 79.08 47.4 28.33 359.23 -80.07 -48.22zm-251.65 -487.75l-11.79 -54.2 216.86 130.17c69.34,41.59 130.99,58.14 185.25,49.28 54.2,-8.68 97.85,-40.6 130.75,-95.44 33.32,-55.43 41.01,-109.05 23.17,-161.2 -17.77,-51.91 -61.24,-98.66 -130.58,-140.31l-216.86 -130.1 53.38 -14.96 -250.18 416.78zm-221.79 203.66l416.13 -693.24 259.28 155.8c58.78,35.2 103.71,74.91 134.75,119.02 30.79,44.29 47.15,90.81 48.8,139.85 1.47,49.04 -12.79,98.55 -42.83,148.82 -29.39,48.8 -65.99,84 -110.1,105.76 -43.88,21.71 -92.68,29.16 -146.3,22.52 -53.39,-6.39 -109.7,-27.33 -168.42,-62.7l-218.74 -131.17 52.74 -14.08 -152.1 253.47 -73.21 -44.06z"/>
   <polygon class="fil2" points="11348.6,24632.57 11702.43,23905.6 11779.22,23942.85 11425.55,24670.05 "/>
   <polygon class="fil2" points="11916.6,24896.18 12201.16,24139.24 12266.97,24164.05 12542.21,25017.9 12507.66,25004.65 12754.73,24347.42 12833.57,24376.99 12549.25,25133.99 12483.25,25109.17 12209.25,24255.74 12243.81,24268.99 11996.73,24926.22 "/>
   <path class="fil2" d="M13659.02 25326.05l69.98 -289.73 79.66 19.42 -72.44 299.7 -77.2 -29.39zm-235.28 59.77c-60.01,-14.48 -112.75,-37.83 -158.5,-69.75 -45.76,-32.08 -82.77,-70.56 -111.1,-115.44 -28.57,-44.93 -47.22,-94.15 -55.91,-147.76 -8.92,-53.61 -6.39,-109.28 7.68,-166.77 13.85,-57.78 36.84,-108.47 69.28,-152.11 32.32,-43.7 71.44,-78.83 117.55,-105.76 46.16,-26.92 96.84,-44.28 152.1,-51.97 55.49,-7.63 112.99,-4.11 172.82,10.38 60,14.26 112.57,36.84 157.67,67.63 45.35,30.85 80.9,69.34 107,116.15l-64.35 40.3c-25.05,-40.94 -55.67,-73.21 -91.92,-97.02 -36.2,-23.81 -77.14,-41.18 -122.9,-52.39 -48.63,-11.55 -95.2,-14.26 -139.9,-8.03 -44.7,6.21 -85.88,20.47 -123.3,42.64 -37.49,22.35 -69.34,51.1 -95.62,86.29 -26.28,35.14 -45.11,76.56 -56.49,123.54 -11.38,46.52 -13.25,91.46 -6.04,135.34 7.28,43.64 22.59,83.99 45.75,120.83 23.17,36.84 53.21,68.28 90.05,94.39 37.01,25.87 79.42,44.46 127.22,56.07 44.94,10.97 88.99,14.49 132.46,10.56 43.23,-3.75 85.64,-17.59 127.06,-41.82l31.85 74.32c-45.28,23.99 -94.98,38.24 -149.17,42.99 -54.26,4.75 -108.64,0.41 -163.31,-12.61z"/>
   <polygon class="fil2" points="14790.99,25605.38 14849.17,24798.75 14934.4,24804.96 14881.62,25537.75 15333.18,25570.18 15328.02,25644.1 "/>
   <polygon class="fil2" points="15744.56,25646.79 15731.54,24838.28 15817,24836.82 15830.02,25645.33 "/>
   <polygon class="fil2" points="16580.64,25609.72 16151.6,24836.41 16243.69,24828.31 16645.4,25556.34 16594.89,25561.09 16862.67,24772.64 16948.96,24765.02 16664.64,25602.27 "/>
   <path class="fil2" d="M17405.86 25052.04l419.07 -83.18 14.26 71.39 -419.24 83.18 -14.08 -71.39zm81.77 364.22l476.97 -94.8 14.31 72.45 -560.85 111.5 -157.44 -792.96 543.83 -108.23 14.26 72.62 -459.78 91.46 128.7 647.96z"/>
   <path class="fil2" d="M18660.94 25211.59c-57.31,17.6 -115.27,25.23 -173.81,22.76 -58.36,-2.52 -106.35,-14.08 -144.24,-34.55l12.61 -72.86c35.43,18.01 78.83,28.98 130.4,32.91 51.5,3.7 102.82,-2.28 153.51,-17.83 48.63,-15.08 86.29,-33.5 113.04,-55.03 26.69,-21.52 44.06,-44.87 52.15,-69.92 7.86,-25.04 8.04,-50.09 0.41,-74.91 -9.56,-30.2 -25.69,-51.97 -48.63,-64.99 -23,-13.03 -50.09,-20.47 -81.36,-22.59 -31.27,-2.05 -65,-1.82 -101.37,0.41 -36.25,2.52 -72.86,4.34 -109.52,5.63 -36.6,1.24 -71.56,-1.47 -104.7,-8.09 -33.09,-6.63 -62.3,-20.06 -87.29,-40.12 -25.29,-19.88 -44.12,-50.51 -56.96,-91.92 -11.8,-38.07 -12.39,-76.31 -2.23,-114.62 10.32,-38.31 33.49,-73.68 69.51,-106.18 35.78,-32.5 86.52,-58.78 151.86,-79.01 43.47,-13.5 88.4,-20.72 134.75,-21.77 46.57,-0.99 88.34,4.34 126,15.96l-7.44 73.67c-39.89,-11.79 -80.07,-17.01 -120.43,-15.95 -40.36,1.23 -77.78,7.27 -112.34,18 -46.4,14.26 -82.77,32.27 -108.87,54.2 -26.51,21.77 -43.47,45.35 -51.32,70.8 -7.86,25.46 -7.63,51.33 0.4,77.79 9.33,30.2 25.7,51.74 48.64,64.76 22.75,13.25 50.09,20.53 81.54,21.94 31.67,1.7 65.4,1.05 101.83,-1.23 36.43,-2.29 72.86,-3.93 109.22,-4.76 36.43,-0.82 71.04,2.05 104.12,8.28 32.91,6.45 61.88,19.47 87.11,39.12 24.81,19.65 43.7,49.68 56.08,89.98 11.61,37.72 12.2,75.56 1.47,114.04 -10.8,38.31 -34.14,73.91 -70.39,106.4 -36.37,32.44 -87.52,58.95 -153.75,79.66z"/>
   <polygon class="fil2" points="20082.45,24646 19462.41,24059.57 19539.84,24018.4 20122.33,24571.09 20083.68,24591.62 19959.09,23795.9 20028.6,23759.06 20615.07,24309.35 20578.24,24329 20448.89,23535.81 20521.34,23497.32 20659.78,24339.32 20580.12,24381.56 20022.21,23860.49 20042.68,23849.51 20160.88,24604.23 "/>
   <polygon class="fil2" points="21263.85,23956.69 20808.77,23288.32 20879.57,23240.1 21334.42,23908.7 "/>
   <polygon class="fil2" points="21889.22,23498.55 21429.98,22925.09 21208.19,23102.9 21162.02,23045.11 21672.12,22636.43 21718.3,22694.15 21496.61,22871.72 21955.86,23445.18 "/>
   <path class="fil2" d="M22340.32 21996.16l59.83 -59.6 570.94 572.41 -59.6 59.59 -571.17 -572.4zm313.3 302.57l-370.38 369.55 -53.03 -52.96 370.44 -369.56 52.96 52.97zm-100.36 627.19l-60.42 60.48 -571.17 -572.41 60.65 -60.42 570.93 572.34z"/>
   <path class="fil2" d="M23893.39 21369.15c-34.96,49.68 -75.5,89.81 -121.9,120.25 -46.34,30.63 -95.62,50.68 -147.53,60.19 -51.91,9.73 -104.3,8.68 -157.5,-2.7 -53.15,-11.38 -104.07,-34.14 -152.52,-68.27 -48.63,-34.15 -87.1,-74.09 -116.09,-120.19 -28.74,-46.17 -47.16,-95.44 -55.67,-147.76 -8.27,-52.56 -5.98,-105.76 7.04,-159.79 13.09,-53.79 36.84,-105.71 71.8,-155.39 33.73,-48.04 73.27,-87.35 119.19,-118.38 45.58,-30.85 94.8,-49.45 147.36,-56.07l13.25 75.73c-46.99,7.68 -87.94,23.59 -123.13,47.63 -35.37,24.17 -66.23,55.03 -92.92,92.86 -27.92,39.77 -46.99,81.36 -57.31,124.83 -10.38,43.64 -12.03,86.7 -4.75,129.52 7.22,42.64 22.35,82.59 45.52,120.02 23.16,37.48 54.43,70.15 94.14,98.07 39.72,27.75 81.13,46.4 124.19,55.26 42.99,9.15 85.88,9.73 128.46,2.11 42.41,-7.68 82.6,-23.81 120.02,-48.45 37.48,-24.4 70.16,-56.48 97.91,-96.2 26.68,-37.89 45.11,-77.43 55.43,-119.19 10.56,-41.59 11.44,-85.71 2.69,-132.28l75.56 -13.19c11.79,51.5 10.96,104.3 -2.29,157.85 -13.25,53.85 -36.84,104.95 -70.98,153.58z"/>
   <path class="fil2" d="M24109.67 20621.88l-48.63 -55.67 226.37 -412.03 73.03 11.2 -250.77 456.5zm119.2 231.58l-530.82 -713.12 40.77 -73.86 886.53 65.17 -43.23 78.83 -828.8 -67.69 16.77 -30.2 501.6 662.85 -42.82 78.02z"/>
   <path class="fil2" d="M25010.86 19234.58l-350.14 81.12 34.96 -85.47 350.79 -82.35 -35.6 86.7zm-443.88 322.39l-51.91 19.89 95.79 -234.05c30.62,-74.91 37.43,-138.27 20.71,-190.59 -16.77,-52.38 -54.84,-90.45 -114.03,-114.68 -59.84,-24.58 -114.22,-23.99 -162.84,1.29 -48.63,25.46 -88.4,75.5 -119.02,150.41l-95.79 234.05 -23 -50.5 450.1 184.18zm234.7 188.54l-748.08 -306.5 114.62 -279.98c25.87,-63.29 58.36,-113.79 97.49,-151.05 38.89,-37.24 82.53,-60.42 130.75,-69.34 48.04,-9.09 99.36,-2.46 153.57,19.65 52.56,21.76 93.1,52.56 121.07,92.74 28.1,40.36 42.83,87.35 44.71,141.14 1.4,53.97 -10.56,112.75 -36.66,176.1l-96.62 236.34 -21.94 -50.33 273.53 112.16 -32.44 79.07z"/>
   <path class="fil2" d="M24787.37 18501.39l117.31 -410.97 69.98 20.07 -117.32 410.97 -69.98 -20.06zm361.34 93.56l133.46 -467.7 70.98 20.47 -156.86 549.64 -777.47 -221.85 152.1 -533.1 71.21 20.29 -128.76 450.74 635.34 181.5z"/>
   <path class="fil2" d="M15723.03 7865.38c-4332.67,0 -7857.65,3524.98 -7857.65,7857.65 0,4332.9 3524.98,7857.65 7857.65,7857.65 4332.9,0 7857.88,-3524.75 7857.88,-7857.65 0,-4332.67 -3524.98,-7857.65 -7857.88,-7857.65zm0 15797.89c-4378.19,0 -7940.18,-3562.05 -7940.18,-7940.24 0,-4378.19 3561.99,-7940.24 7940.18,-7940.24 4378.42,0 7940.24,3562.05 7940.24,7940.24 0,4378.18 -3561.82,7940.24 -7940.24,7940.24z"/>
   <path class="fil3" d="M15723.03 4773.89c-6037.38,0 -10949.08,4911.7 -10949.08,10949.14 0,6037.43 4911.7,10949.31 10949.08,10949.31 6037.43,0 10949.37,-4911.88 10949.37,-10949.31 0,-6037.44 -4911.94,-10949.14 -10949.37,-10949.14zm0 22063.4c-6128.25,0 -11114.03,-4985.79 -11114.03,-11114.26 0,-6128.31 4985.79,-11114.03 11114.03,-11114.03 6128.53,0 11114.26,4985.72 11114.26,11114.03 0,6128.47 -4985.72,11114.26 -11114.26,11114.26z"/>
   <path class="fil2" d="M6532.93 15723.03c0,172.39 -139.91,312.07 -312.08,312.07 -172.39,0 -312.24,-139.67 -312.24,-312.07 0,-172.4 139.85,-312.08 312.24,-312.08 172.17,0 312.08,139.67 312.08,312.08z"/>
   <path class="fil2" d="M25537.75 15723.03c0,172.39 -139.91,312.07 -312.3,312.07 -172.17,0 -312.01,-139.67 -312.01,-312.07 0,-172.4 139.85,-312.08 312.01,-312.08 172.39,0 312.3,139.67 312.3,312.08z"/>
  </g>
 </g>
</svg>
